<?xml version="1.0" encoding="UTF-8" standalone="no"?>
<svg
   xmlns:dc="http://purl.org/dc/elements/1.1/"
   xmlns:cc="http://creativecommons.org/ns#"
   xmlns:rdf="http://www.w3.org/1999/02/22-rdf-syntax-ns#"
   xmlns:svg="http://www.w3.org/2000/svg"
   xmlns="http://www.w3.org/2000/svg"
   xmlns:sodipodi="http://sodipodi.sourceforge.net/DTD/sodipodi-0.dtd"
   xmlns:inkscape="http://www.inkscape.org/namespaces/inkscape"
   id="svg20072"
   version="1.1"
   viewBox="0 0 210 297"
   height="297mm"
   width="210mm"
   inkscape:version="1.0.1 (3bc2e813f5, 2020-09-07)"
   sodipodi:docname="kn-eventing-broker-trigger.svg">
  <defs
     id="defs20066">
    <marker
       style="overflow:visible;"
       id="marker23326"
       refX="0.0"
       refY="0.0"
       orient="auto"
       inkscape:stockid="Arrow1Lend"
       inkscape:isstock="true">
      <path
         transform="scale(0.8) rotate(180) translate(12.5,0)"
         style="fill-rule:evenodd;stroke:#7015ff;stroke-width:1pt;stroke-opacity:1;fill:#7015ff;fill-opacity:1"
         d="M 0.0,0.0 L 5.0,-5.0 L -12.5,0.0 L 5.0,5.0 L 0.0,0.0 z "
         id="path23324" />
    </marker>
    <marker
       style="overflow:visible;"
       id="Arrow1Lend"
       refX="0.0"
       refY="0.0"
       orient="auto"
       inkscape:stockid="Arrow1Lend"
       inkscape:isstock="true"
       inkscape:collect="always">
      <path
         transform="scale(0.8) rotate(180) translate(12.5,0)"
         style="fill-rule:evenodd;stroke:#7015ff;stroke-width:1pt;stroke-opacity:1;fill:#7015ff;fill-opacity:1"
         d="M 0.0,0.0 L 5.0,-5.0 L -12.5,0.0 L 5.0,5.0 L 0.0,0.0 z "
         id="path22353" />
    </marker>
    <marker
       style="overflow:visible"
       id="marker23176"
       refX="0.0"
       refY="0.0"
       orient="auto"
       inkscape:stockid="Arrow2Lstart"
       inkscape:isstock="true">
      <path
         transform="scale(1.1) translate(1,0)"
         d="M 8.7185878,4.0337352 L -2.2072895,0.016013256 L 8.7185884,-4.0017078 C 6.9730900,-1.6296469 6.9831476,1.6157441 8.7185878,4.0337352 z "
         style="fill-rule:evenodd;stroke-width:0.625;stroke-linejoin:round;stroke:#000000;stroke-opacity:1;fill:#000000;fill-opacity:1"
         id="path23174" />
    </marker>
    <marker
       style="overflow:visible"
       id="marker23100"
       refX="0.0"
       refY="0.0"
       orient="auto"
       inkscape:stockid="Arrow2Lstart"
       inkscape:isstock="true"
       inkscape:collect="always">
      <path
         transform="scale(1.1) translate(1,0)"
         d="M 8.7185878,4.0337352 L -2.2072895,0.016013256 L 8.7185884,-4.0017078 C 6.9730900,-1.6296469 6.9831476,1.6157441 8.7185878,4.0337352 z "
         style="fill-rule:evenodd;stroke-width:0.625;stroke-linejoin:round;stroke:#000000;stroke-opacity:1;fill:#000000;fill-opacity:1"
         id="path23098" />
    </marker>
    <marker
       style="overflow:visible"
       id="marker23044"
       refX="0.0"
       refY="0.0"
       orient="auto"
       inkscape:stockid="Arrow2Lstart"
       inkscape:isstock="true"
       inkscape:collect="always">
      <path
         transform="scale(1.1) translate(1,0)"
         d="M 8.7185878,4.0337352 L -2.2072895,0.016013256 L 8.7185884,-4.0017078 C 6.9730900,-1.6296469 6.9831476,1.6157441 8.7185878,4.0337352 z "
         style="fill-rule:evenodd;stroke-width:0.625;stroke-linejoin:round;stroke:#000000;stroke-opacity:1;fill:#000000;fill-opacity:1"
         id="path23042" />
    </marker>
    <marker
       style="overflow:visible"
       id="marker22900"
       refX="0.0"
       refY="0.0"
       orient="auto"
       inkscape:stockid="Arrow2Lstart"
       inkscape:isstock="true"
       inkscape:collect="always">
      <path
         transform="scale(1.1) translate(1,0)"
         d="M 8.7185878,4.0337352 L -2.2072895,0.016013256 L 8.7185884,-4.0017078 C 6.9730900,-1.6296469 6.9831476,1.6157441 8.7185878,4.0337352 z "
         style="fill-rule:evenodd;stroke-width:0.625;stroke-linejoin:round;stroke:#000000;stroke-opacity:1;fill:#000000;fill-opacity:1"
         id="path22898" />
    </marker>
    <marker
       style="overflow:visible"
       id="marker22858"
       refX="0.0"
       refY="0.0"
       orient="auto"
       inkscape:stockid="Arrow2Lstart"
       inkscape:isstock="true">
      <path
         transform="scale(1.1) translate(1,0)"
         d="M 8.7185878,4.0337352 L -2.2072895,0.016013256 L 8.7185884,-4.0017078 C 6.9730900,-1.6296469 6.9831476,1.6157441 8.7185878,4.0337352 z "
         style="fill-rule:evenodd;stroke-width:0.625;stroke-linejoin:round;stroke:#000000;stroke-opacity:1;fill:#000000;fill-opacity:1"
         id="path22856" />
    </marker>
    <marker
       style="overflow:visible"
       id="Arrow1Lstart"
       refX="0.0"
       refY="0.0"
       orient="auto"
       inkscape:stockid="Arrow1Lstart"
       inkscape:isstock="true">
      <path
         transform="scale(0.8) translate(12.5,0)"
         style="fill-rule:evenodd;stroke:#000000;stroke-width:1pt;stroke-opacity:1;fill:#000000;fill-opacity:1"
         d="M 0.0,0.0 L 5.0,-5.0 L -12.5,0.0 L 5.0,5.0 L 0.0,0.0 z "
         id="path22350" />
    </marker>
    <marker
       style="overflow:visible"
       id="marker22798"
       refX="0.0"
       refY="0.0"
       orient="auto"
       inkscape:stockid="Arrow2Lstart"
       inkscape:isstock="true">
      <path
         transform="scale(1.1) translate(1,0)"
         d="M 8.7185878,4.0337352 L -2.2072895,0.016013256 L 8.7185884,-4.0017078 C 6.9730900,-1.6296469 6.9831476,1.6157441 8.7185878,4.0337352 z "
         style="fill-rule:evenodd;stroke-width:0.625;stroke-linejoin:round;stroke:#000000;stroke-opacity:1;fill:#000000;fill-opacity:1"
         id="path22796" />
    </marker>
    <marker
       style="overflow:visible"
       id="marker22772"
       refX="0.0"
       refY="0.0"
       orient="auto"
       inkscape:stockid="Arrow2Lstart"
       inkscape:isstock="true">
      <path
         transform="scale(1.1) translate(1,0)"
         d="M 8.7185878,4.0337352 L -2.2072895,0.016013256 L 8.7185884,-4.0017078 C 6.9730900,-1.6296469 6.9831476,1.6157441 8.7185878,4.0337352 z "
         style="fill-rule:evenodd;stroke-width:0.625;stroke-linejoin:round;stroke:#000000;stroke-opacity:1;fill:#000000;fill-opacity:1"
         id="path22770" />
    </marker>
    <marker
       style="overflow:visible"
       id="Arrow2Lstart"
       refX="0.0"
       refY="0.0"
       orient="auto"
       inkscape:stockid="Arrow2Lstart"
       inkscape:isstock="true">
      <path
         transform="scale(1.1) translate(1,0)"
         d="M 8.7185878,4.0337352 L -2.2072895,0.016013256 L 8.7185884,-4.0017078 C 6.9730900,-1.6296469 6.9831476,1.6157441 8.7185878,4.0337352 z "
         style="fill-rule:evenodd;stroke-width:0.625;stroke-linejoin:round;stroke:#000000;stroke-opacity:1;fill:#000000;fill-opacity:1"
         id="path22368" />
    </marker>
  </defs>
  <sodipodi:namedview
     id="base"
     pagecolor="#ffffff"
     bordercolor="#666666"
     borderopacity="1.0"
     inkscape:pageopacity="0.0"
     inkscape:pageshadow="2"
     inkscape:zoom="1.4"
     inkscape:cx="361.84185"
     inkscape:cy="135.16462"
     inkscape:document-units="mm"
     inkscape:current-layer="layer1"
     inkscape:document-rotation="0"
     showgrid="false"
     inkscape:connector-spacing="0"
     inkscape:window-width="1809"
     inkscape:window-height="1254"
     inkscape:window-x="2254"
     inkscape:window-y="129"
     inkscape:window-maximized="0" />
  <metadata
     id="metadata20069">
    <rdf:RDF>
      <cc:Work
         rdf:about="">
        <dc:format>image/svg+xml</dc:format>
        <dc:type
           rdf:resource="http://purl.org/dc/dcmitype/StillImage" />
        <dc:title></dc:title>
      </cc:Work>
    </rdf:RDF>
  </metadata>
  <g
     inkscape:label="Layer 1"
     inkscape:groupmode="layer"
     id="layer1">
    <g
       id="g20723"
       transform="matrix(7.4496412,0,0,7.4496412,-167.08409,-394.04569)">
      <path
         sodipodi:type="star"
         style="opacity:1;fill:none;fill-opacity:1;stroke:none;stroke-width:0.0442918;stroke-miterlimit:4;stroke-dasharray:none;stroke-opacity:1"
         id="path823"
         sodipodi:sides="9"
         sodipodi:cx="47.742634"
         sodipodi:cy="61.4216"
         sodipodi:r1="0.85589981"
         sodipodi:r2="0.76630902"
         sodipodi:arg1="1.2193516"
         sodipodi:arg2="1.5684175"
         inkscape:flatsided="true"
         inkscape:rounded="0"
         inkscape:randomized="0"
         d="m 48.037281,62.225184 -0.585468,0.0014 -0.44939,-0.375265 -0.103037,-0.576332 0.291528,-0.507726 0.549684,-0.201551 0.550636,0.198933 0.293941,0.506334 -0.100294,0.576816 z"
         inkscape:transform-center-x="-0.0014770388"
         inkscape:transform-center-y="-0.040690139" />
      <path
         id="path987"
         style="opacity:1;fill:#6594cb;fill-opacity:1;stroke:none;stroke-width:0.00057009;stroke-miterlimit:4;stroke-dasharray:none;stroke-opacity:1"
         d="m 46.485739,60.285516 c -0.0021,3e-5 -0.31278,0.11352 -0.690601,0.25205 l -0.686601,0.25207 -0.365298,0.63593 c -0.20071,0.3496 -0.364233,0.63774 -0.363966,0.64128 0.0012,0.0154 0.25439,1.427541 0.25731,1.434531 0.0018,0.005 0.254274,0.21981 0.562613,0.47728 l 0.56128,0.467969 0.705265,-9.78e-4 c 0.388194,-2.01e-4 0.720301,-9.79e-4 0.737264,-0.003 l 0.03066,-0.003 0.558614,-0.47059 c 0.306997,-0.25888 0.558922,-0.47246 0.559945,-0.47597 10e-4,-0.003 0.05815,-0.32959 0.126656,-0.72393 l 0.123988,-0.717272 -0.367965,-0.63461 -0.369297,-0.63461 -0.03733,-0.0128 c -0.02074,-0.008 -0.330173,-0.11997 -0.687935,-0.24921 -0.357761,-0.12926 -0.652556,-0.23477 -0.654604,-0.23477 z" />
      <g
         id="g16416"
         transform="matrix(0.83990281,0,0,0.83990281,41.991027,-185.64753)">
        <path
           id="path18310-4"
           style="display:inline;fill:#ffffff;fill-opacity:1;stroke:#ffffff;stroke-width:0;stroke-miterlimit:4;stroke-dasharray:none;stroke-opacity:1"
           d="m 6.2150084,293.91883 a 0.50141033,0.49777707 19.978408 0 0 -0.106716,0.0115 0.50141033,0.49777707 19.978408 0 0 -0.3797885,0.59303 0.50141033,0.49777707 19.978408 0 0 0.5981229,0.38044 0.50141033,0.49777707 19.978408 0 0 0.3797885,-0.59303 0.50141033,0.49777707 19.978408 0 0 -0.4914069,-0.3919 z m 8.758e-4,0.31892 a 0.17928039,0.17928039 0 0 1 0.00159,0 0.17928039,0.17928039 0 0 1 0.1792777,0.17928 0.17928039,0.17928039 0 0 1 -0.1792777,0.17927 0.17928039,0.17928039 0 0 1 -0.1792778,-0.17927 0.17928039,0.17928039 0 0 1 0.1776868,-0.17928 z" />
        <rect
           style="display:inline;fill:#ffffff;fill-opacity:1;stroke:#ffffff;stroke-width:0;stroke-miterlimit:4;stroke-dasharray:none;stroke-opacity:1"
           id="rect18387-3"
           width="0.23309904"
           height="0.37375277"
           x="-289.15356"
           y="-55.978271"
           ry="9.0013651e-16"
           transform="matrix(-0.211836,-0.97730523,0.97724799,-0.21209989,0,0)" />
        <rect
           style="display:inline;fill:#ffffff;fill-opacity:1;stroke:#ffffff;stroke-width:0;stroke-miterlimit:4;stroke-dasharray:none;stroke-opacity:1"
           id="rect18259"
           width="0.47272825"
           height="0.55849165"
           x="229.58252"
           y="-185.74808"
           ry="1.1905626e-15"
           transform="matrix(-0.61075128,0.7918225,-0.78778442,-0.61595106,0,0)" />
        <rect
           style="display:inline;fill:#ffffff;fill-opacity:1;stroke:#ffffff;stroke-width:0;stroke-miterlimit:4;stroke-dasharray:none;stroke-opacity:1"
           id="rect18259-4"
           width="0.47210151"
           height="0.55922663"
           x="-0.78502131"
           y="-296.89008"
           ry="1.1921293e-15"
           transform="matrix(-0.99994331,0.01064744,-0.01512397,-0.99988563,0,0)" />
        <rect
           style="display:inline;fill:#ffffff;fill-opacity:1;stroke:#ffffff;stroke-width:0;stroke-miterlimit:4;stroke-dasharray:none;stroke-opacity:1"
           id="rect18259-9"
           width="0.4747934"
           height="0.5560562"
           x="-231.74878"
           y="-184.07957"
           ry="1.1853709e-15"
           transform="matrix(-0.63174438,-0.77517678,0.77226811,-0.63529676,0,0)" />
        <rect
           style="display:inline;fill:#ffffff;fill-opacity:1;stroke:#ffffff;stroke-width:0;stroke-miterlimit:4;stroke-dasharray:none;stroke-opacity:1"
           id="rect18259-93"
           width="0.47422206"
           height="0.55673212"
           x="-288.02817"
           y="64.84153"
           ry="1.1868117e-15"
           transform="matrix(0.20675023,-0.97839376,0.97702492,0.21312508,0,0)" />
        <rect
           style="display:inline;fill:#ffffff;fill-opacity:1;stroke:#ffffff;stroke-width:0;stroke-miterlimit:4;stroke-dasharray:none;stroke-opacity:1"
           id="rect18259-6"
           width="0.47178271"
           height="0.55959958"
           x="-127.21611"
           y="265.6188"
           ry="1.1929246e-15"
           transform="matrix(0.8949225,-0.44622161,0.44470901,0.89567511,0,0)" />
        <rect
           style="display:inline;fill:#ffffff;fill-opacity:1;stroke:#ffffff;stroke-width:0;stroke-miterlimit:4;stroke-dasharray:none;stroke-opacity:1"
           id="rect18259-0"
           width="0.47344285"
           height="0.55765128"
           x="128.18256"
           y="264.21616"
           ry="1.1887714e-15"
           transform="matrix(0.90494619,0.42552601,-0.41893402,0.90801668,0,0)" />
        <rect
           style="display:inline;fill:#ffffff;fill-opacity:1;stroke:#ffffff;stroke-width:0;stroke-miterlimit:4;stroke-dasharray:none;stroke-opacity:1"
           id="rect18259-5"
           width="0.47513935"
           height="0.55564612"
           x="288.35611"
           y="63.645226"
           ry="1.1844968e-15"
           transform="matrix(0.23582,0.97179675,-0.97216039,0.23431642,0,0)" />
        <path
           id="path18310"
           style="display:inline;fill:#ffffff;fill-opacity:1;stroke:#ffffff;stroke-width:0;stroke-miterlimit:4;stroke-dasharray:none;stroke-opacity:1"
           d="m 5.0127563,294.72438 a 0.92395857,0.91726342 70.263479 0 0 -0.718215,0.35525 0.92395857,0.91726342 70.263479 0 0 0.1649602,1.29575 0.92395857,0.91726342 70.263479 0 0 1.2877679,-0.15989 0.92395857,0.91726342 70.263479 0 0 -0.1649603,-1.29576 0.92395857,0.91726342 70.263479 0 0 -0.5695528,-0.19535 z m 0.00467,0.44105 a 0.48212432,0.48212432 0 0 1 0.2085622,0.0458 0.48212432,0.48212432 0 0 1 0.2312236,0.64144 0.48212432,0.48212432 0 0 1 -0.6414327,0.23119 0.48212432,0.48212432 0 0 1 -0.2311911,-0.6414 0.48212432,0.48212432 0 0 1 0.432838,-0.27704 z" />
        <rect
           style="display:inline;fill:#ffffff;fill-opacity:1;stroke:#ffffff;stroke-width:0;stroke-miterlimit:4;stroke-dasharray:none;stroke-opacity:1"
           id="rect18387-3-4"
           width="0.23309904"
           height="0.37375277"
           x="-144.80627"
           y="256.83777"
           ry="9.0013651e-16"
           transform="matrix(0.86053995,-0.50938295,0.50961528,0.86040238,0,0)" />
        <rect
           style="display:inline;fill:#ffffff;fill-opacity:1;stroke:#ffffff;stroke-width:0;stroke-miterlimit:4;stroke-dasharray:none;stroke-opacity:1"
           id="rect18387-3-2"
           width="0.23309904"
           height="0.37375277"
           x="200.41521"
           y="215.91234"
           ry="9.0013651e-16"
           transform="matrix(0.74635283,0.66555049,-0.66534892,0.74653253,0,0)" />
        <rect
           style="display:inline;fill:#ffffff;fill-opacity:1;stroke:#ffffff;stroke-width:0;stroke-miterlimit:4;stroke-dasharray:none;stroke-opacity:1"
           id="rect18387-3-26"
           width="0.23309904"
           height="0.37375277"
           x="267.31549"
           y="-123.04696"
           ry="9.0013651e-16"
           transform="matrix(-0.39964437,0.91667027,-0.91677814,-0.39939685,0,0)" />
        <rect
           style="display:inline;fill:#ffffff;fill-opacity:1;stroke:#ffffff;stroke-width:0;stroke-miterlimit:4;stroke-dasharray:none;stroke-opacity:1"
           id="rect18387-3-41"
           width="0.23309904"
           height="0.37375277"
           x="-34.347088"
           y="-292.16605"
           ry="9.0013651e-16"
           transform="matrix(-0.99542819,-0.09551293,0.09524414,-0.99545394,0,0)" />
      </g>
      <text
         xml:space="preserve"
         style="font-style:normal;font-weight:normal;font-size:0.348544px;line-height:1.25;font-family:sans-serif;letter-spacing:0px;word-spacing:0px;fill:#ffffff;fill-opacity:1;stroke:none;stroke-width:0.00871363"
         x="45.756031"
         y="64.16214"
         id="text17672"><tspan
           sodipodi:role="line"
           id="tspan17670"
           x="45.756031"
           y="64.16214"
           style="fill:#ffffff;fill-opacity:1;stroke-width:0.00871363">SERVICE</tspan></text>
    </g>
    <g
       id="g21479"
       transform="matrix(7.4138491,0,0,7.4138491,-125.23422,-306.3446)">
      <path
         sodipodi:type="star"
         style="opacity:1;fill:none;fill-opacity:1;stroke:none;stroke-width:0.0121632;stroke-miterlimit:4;stroke-dasharray:none;stroke-opacity:1"
         id="path821"
         sodipodi:sides="7"
         sodipodi:cx="25.239626"
         sodipodi:cy="50.91777"
         sodipodi:r1="1.769226"
         sodipodi:r2="1.5940177"
         sodipodi:arg1="1.1246908"
         sodipodi:arg2="1.5734898"
         inkscape:flatsided="true"
         inkscape:rounded="0"
         inkscape:randomized="0"
         d="m 26.002968,52.51385 -1.535271,-0.0041 -0.953993,-1.202902 0.345661,-1.495859 1.385026,-0.662403 1.381438,0.669855 0.337598,1.497699 z"
         inkscape:transform-center-x="0.0010604645"
         inkscape:transform-center-y="-0.086589138" />
      <path
         sodipodi:type="star"
         style="opacity:1;fill:none;fill-opacity:1;stroke:none;stroke-width:0.0442918;stroke-miterlimit:4;stroke-dasharray:none;stroke-opacity:1"
         id="path823-3"
         sodipodi:sides="9"
         sodipodi:cx="26.764954"
         sodipodi:cy="49.893326"
         sodipodi:r1="0.85589981"
         sodipodi:r2="0.76630902"
         sodipodi:arg1="1.2193516"
         sodipodi:arg2="1.5684175"
         inkscape:flatsided="true"
         inkscape:rounded="0"
         inkscape:randomized="0"
         d="m 27.059601,50.69691 -0.585468,0.0014 -0.44939,-0.375265 -0.103037,-0.576332 0.291528,-0.507727 0.549684,-0.201551 0.550636,0.198934 0.29394,0.506334 -0.100293,0.576815 z"
         inkscape:transform-center-x="-0.0014770388"
         inkscape:transform-center-y="-0.040690139" />
      <path
         id="path987-7"
         style="opacity:1;fill:#6594cb;fill-opacity:1;stroke:none;stroke-width:0.00057009;stroke-miterlimit:4;stroke-dasharray:none;stroke-opacity:1"
         d="m 25.50806,48.757243 c -0.0021,3e-5 -0.31278,0.11352 -0.6906,0.25205 l -0.686602,0.25207 -0.365298,0.63593 c -0.200709,0.3496 -0.364232,0.63774 -0.363965,0.64128 0.0012,0.0154 0.254389,1.42754 0.25731,1.43453 0.0018,0.005 0.254273,0.21981 0.562613,0.47728 l 0.561279,0.46797 0.705266,-9.79e-4 c 0.388194,-2e-4 0.720301,-9.79e-4 0.737263,-0.003 l 0.03066,-0.003 0.558614,-0.47059 c 0.306998,-0.25888 0.558922,-0.47246 0.559946,-0.47597 0.001,-0.003 0.05815,-0.32959 0.126655,-0.72393 l 0.123988,-0.717271 -0.367964,-0.63461 -0.369298,-0.63461 -0.03733,-0.0128 c -0.02074,-0.008 -0.330172,-0.11997 -0.687934,-0.24921 -0.357762,-0.12926 -0.652557,-0.23477 -0.654605,-0.23477 z" />
      <g
         id="g15653"
         transform="matrix(0.79763377,0,0,0.79763377,23.889574,-184.48376)"
         style="fill:#ffffff">
        <ellipse
           style="display:inline;opacity:1;fill:#ffffff;fill-opacity:1;stroke:#000000;stroke-width:0;stroke-miterlimit:4;stroke-dasharray:none;stroke-opacity:1"
           id="path6915"
           cx="295.02454"
           cy="-3.5036981"
           rx="0.21980365"
           ry="0.21895014"
           transform="rotate(90)" />
        <ellipse
           style="display:inline;opacity:1;fill:#ffffff;fill-opacity:1;stroke:#000000;stroke-width:0;stroke-miterlimit:4;stroke-dasharray:none;stroke-opacity:1"
           id="path6915-3"
           cx="207.17435"
           cy="-211.52129"
           rx="0.21980365"
           ry="0.21895014"
           transform="rotate(135)" />
        <ellipse
           style="display:inline;opacity:1;fill:#ffffff;fill-opacity:1;stroke:#000000;stroke-width:0;stroke-miterlimit:4;stroke-dasharray:none;stroke-opacity:1"
           id="path6915-8"
           cx="-2.0357955"
           cy="-296.49246"
           rx="0.21980365"
           ry="0.21895014"
           transform="scale(-1)" />
        <ellipse
           style="display:inline;opacity:1;fill:#ffffff;fill-opacity:1;stroke:#000000;stroke-width:0;stroke-miterlimit:4;stroke-dasharray:none;stroke-opacity:1"
           id="path6915-6"
           cx="-210.05339"
           cy="-208.64224"
           rx="0.21980365"
           ry="0.21895014"
           transform="rotate(-135)" />
        <ellipse
           style="display:inline;opacity:1;fill:#ffffff;fill-opacity:1;stroke:#000000;stroke-width:0;stroke-miterlimit:4;stroke-dasharray:none;stroke-opacity:1"
           id="path6915-2"
           cx="-295.02454"
           cy="0.56789136"
           rx="0.21980365"
           ry="0.21895014"
           transform="rotate(-90)" />
        <ellipse
           style="display:inline;opacity:1;fill:#ffffff;fill-opacity:1;stroke:#000000;stroke-width:0;stroke-miterlimit:4;stroke-dasharray:none;stroke-opacity:1"
           id="path6915-67"
           cx="-207.1743"
           cy="208.58553"
           rx="0.21980365"
           ry="0.21895014"
           transform="rotate(-44.99999)" />
        <ellipse
           style="display:inline;opacity:1;fill:#ffffff;fill-opacity:1;stroke:#000000;stroke-width:0;stroke-miterlimit:4;stroke-dasharray:none;stroke-opacity:1"
           id="path6915-5"
           cx="2.0357955"
           cy="293.55664"
           rx="0.21980365"
           ry="0.21895014" />
        <ellipse
           style="display:inline;opacity:1;fill:#ffffff;fill-opacity:1;stroke:#000000;stroke-width:0;stroke-miterlimit:4;stroke-dasharray:none;stroke-opacity:1"
           id="path6915-69"
           cx="210.05347"
           cy="205.70636"
           rx="0.21980365"
           ry="0.21895014"
           transform="rotate(45.000023)" />
        <rect
           style="display:inline;fill:#ffffff;fill-opacity:1;stroke:#000000;stroke-width:0;stroke-miterlimit:4;stroke-dasharray:none;stroke-opacity:1"
           id="rect6836-1-8"
           width="0.12246498"
           height="0.31367663"
           x="294.96542"
           y="-3.2389488"
           ry="5.4255653e-16"
           transform="rotate(90)" />
        <rect
           style="display:inline;fill:#ffffff;fill-opacity:1;stroke:#000000;stroke-width:0;stroke-miterlimit:4;stroke-dasharray:none;stroke-opacity:1"
           id="rect6836-1-8-7"
           width="0.12246498"
           height="0.31367663"
           x="207.11627"
           y="-211.2587"
           ry="5.4255653e-16"
           transform="rotate(135)" />
        <rect
           style="display:inline;fill:#ffffff;fill-opacity:1;stroke:#000000;stroke-width:0;stroke-miterlimit:4;stroke-dasharray:none;stroke-opacity:1"
           id="rect6836-1-8-2"
           width="0.12246498"
           height="0.31367663"
           x="-2.0946679"
           y="-296.23215"
           ry="5.4255653e-16"
           transform="scale(-1)" />
        <rect
           style="display:inline;fill:#ffffff;fill-opacity:1;stroke:#000000;stroke-width:0;stroke-miterlimit:4;stroke-dasharray:none;stroke-opacity:1"
           id="rect6836-1-8-8"
           width="0.12246498"
           height="0.31367663"
           x="-210.11443"
           y="-208.383"
           ry="5.4255653e-16"
           transform="rotate(-135)" />
        <rect
           style="display:inline;fill:#ffffff;fill-opacity:1;stroke:#000000;stroke-width:0;stroke-miterlimit:4;stroke-dasharray:none;stroke-opacity:1"
           id="rect6836-1-8-29"
           width="0.12246498"
           height="0.31367663"
           x="-295.08786"
           y="0.82792366"
           ry="5.4255653e-16"
           transform="rotate(-90)" />
        <rect
           style="display:inline;fill:#ffffff;fill-opacity:1;stroke:#000000;stroke-width:0;stroke-miterlimit:4;stroke-dasharray:none;stroke-opacity:1"
           id="rect6836-1-8-9"
           width="0.12246498"
           height="0.31367663"
           x="-207.23868"
           y="208.84772"
           ry="5.4255642e-16"
           transform="rotate(-44.99999)" />
        <rect
           style="display:inline;fill:#ffffff;fill-opacity:1;stroke:#000000;stroke-width:0;stroke-miterlimit:4;stroke-dasharray:none;stroke-opacity:1"
           id="rect6836-1-8-6"
           width="0.12246498"
           height="0.31367663"
           x="1.9722033"
           y="293.82111"
           ry="5.4255653e-16" />
        <rect
           style="display:inline;fill:#ffffff;fill-opacity:1;stroke:#000000;stroke-width:0;stroke-miterlimit:4;stroke-dasharray:none;stroke-opacity:1"
           id="rect6836-1-8-0"
           width="0.12246498"
           height="0.31367663"
           x="209.99203"
           y="205.97189"
           ry="5.4255642e-16"
           transform="rotate(45.000025)" />
        <text
           xml:space="preserve"
           style="font-style:normal;font-variant:normal;font-weight:600;font-stretch:normal;font-size:2.42406px;line-height:1.25;font-family:Montserrat;-inkscape-font-specification:'Montserrat, Semi-Bold';font-variant-ligatures:normal;font-variant-caps:normal;font-variant-numeric:normal;font-variant-east-asian:normal;letter-spacing:0px;word-spacing:0px;display:inline;fill:#ffffff;fill-opacity:1;stroke:none;stroke-width:0.0606015"
           x="1.2795526"
           y="295.67264"
           id="text7472"><tspan
             sodipodi:role="line"
             id="tspan7470"
             x="1.2795526"
             y="295.67264"
             style="font-style:normal;font-variant:normal;font-weight:600;font-stretch:normal;font-size:2.42406px;font-family:Montserrat;-inkscape-font-specification:'Montserrat, Semi-Bold';font-variant-ligatures:normal;font-variant-caps:normal;font-variant-numeric:normal;font-variant-east-asian:normal;fill:#ffffff;fill-opacity:1;stroke-width:0.0606015">e</tspan></text>
      </g>
      <text
         xml:space="preserve"
         style="font-style:normal;font-weight:normal;font-size:0.348544px;line-height:1.25;font-family:sans-serif;letter-spacing:0px;word-spacing:0px;fill:#ffffff;fill-opacity:1;stroke:none;stroke-width:0.00871363"
         x="24.778013"
         y="52.646896"
         id="text17672-4"><tspan
           sodipodi:role="line"
           id="tspan17670-5"
           x="24.778013"
           y="52.646896"
           style="fill:#ffffff;fill-opacity:1;stroke-width:0.00871363">BROKER</tspan></text>
    </g>
    <g
       id="g22159"
       transform="matrix(7.4531892,0,0,7.4531892,-102.55528,-345.46158)">
      <path
         sodipodi:type="star"
         style="opacity:1;fill:none;fill-opacity:1;stroke:none;stroke-width:0.0442918;stroke-miterlimit:4;stroke-dasharray:none;stroke-opacity:1"
         id="path823-2"
         sodipodi:sides="9"
         sodipodi:cx="31.489656"
         sodipodi:cy="48.948383"
         sodipodi:r1="0.85589981"
         sodipodi:r2="0.76630902"
         sodipodi:arg1="1.2193516"
         sodipodi:arg2="1.5684175"
         inkscape:flatsided="true"
         inkscape:rounded="0"
         inkscape:randomized="0"
         d="m 31.784304,49.751967 -0.585468,0.0014 -0.44939,-0.375265 -0.103037,-0.576332 0.291527,-0.507726 0.549684,-0.201551 0.550637,0.198933 0.29394,0.506334 -0.100294,0.576816 z"
         inkscape:transform-center-x="-0.0014770388"
         inkscape:transform-center-y="-0.040690139" />
      <path
         id="path987-5"
         style="opacity:1;fill:#6594cb;fill-opacity:1;stroke:none;stroke-width:0.00057009;stroke-miterlimit:4;stroke-dasharray:none;stroke-opacity:1"
         d="m 30.232762,47.812302 c -0.0021,3e-5 -0.312779,0.11352 -0.6906,0.25205 l -0.686601,0.25207 -0.365299,0.63593 c -0.200709,0.3496 -0.364232,0.63774 -0.363965,0.64128 0.0012,0.0154 0.25439,1.42754 0.25731,1.43453 0.0018,0.005 0.254273,0.21981 0.562613,0.47728 l 0.561279,0.46797 0.705266,-9.79e-4 c 0.388194,-2e-4 0.720301,-9.79e-4 0.737264,-0.003 l 0.03066,-0.003 0.558613,-0.47059 c 0.306998,-0.25888 0.558922,-0.47246 0.559946,-0.47597 10e-4,-0.003 0.05815,-0.32959 0.126656,-0.72393 l 0.123988,-0.717271 -0.367965,-0.63461 -0.369298,-0.63461 -0.03733,-0.0128 c -0.02074,-0.008 -0.330172,-0.11997 -0.687934,-0.24921 -0.357761,-0.12926 -0.652557,-0.23477 -0.654604,-0.23477 z" />
      <g
         id="g14203"
         transform="matrix(1.0571292,0,0,1.0571292,22.481028,-262.41682)">
        <rect
           style="display:inline;fill:#ffffff;fill-opacity:1;stroke:#000000;stroke-width:0;stroke-miterlimit:4;stroke-dasharray:none;stroke-opacity:1"
           id="rect6836-1-9-9-3"
           width="0.35879666"
           height="0.79896545"
           x="6.8565946"
           y="295.86273"
           ry="1.3819449e-15"
           transform="matrix(0.99999931,0.00117118,0.0018982,0.9999982,0,0)" />
        <rect
           style="display:inline;fill:#ffffff;fill-opacity:1;stroke:#000000;stroke-width:0;stroke-miterlimit:4;stroke-dasharray:none;stroke-opacity:1"
           id="rect6836-1-9-9-7"
           width="0.35880554"
           height="1.2618878"
           x="239.26077"
           y="384.04352"
           ry="2.182647e-15"
           transform="matrix(-0.99999899,-0.00142158,0.63979913,0.76854218,0,0)" />
        <rect
           style="display:inline;fill:#ffffff;fill-opacity:1;stroke:#000000;stroke-width:0;stroke-miterlimit:4;stroke-dasharray:none;stroke-opacity:1"
           id="rect6836-1-9-9-3-6"
           width="0.35879666"
           height="0.79896545"
           x="-7.8191843"
           y="295.88434"
           ry="1.3819449e-15"
           transform="matrix(-0.99999931,0.00117118,-0.0018982,0.9999982,0,0)" />
        <text
           xml:space="preserve"
           style="font-style:normal;font-variant:normal;font-weight:600;font-stretch:normal;font-size:1.65851px;line-height:1.25;font-family:Montserrat;-inkscape-font-specification:'Montserrat, Semi-Bold';font-variant-ligatures:normal;font-variant-caps:normal;font-variant-numeric:normal;font-variant-east-asian:normal;letter-spacing:0px;word-spacing:0px;display:inline;fill:#ffffff;fill-opacity:1;stroke:none;stroke-width:0.0414625"
           x="6.8216453"
           y="295.0853"
           id="text7472-4"><tspan
             sodipodi:role="line"
             id="tspan7470-7"
             x="6.8216453"
             y="295.0853"
             style="font-style:normal;font-variant:normal;font-weight:600;font-stretch:normal;font-size:1.65851px;font-family:Montserrat;-inkscape-font-specification:'Montserrat, Semi-Bold';font-variant-ligatures:normal;font-variant-caps:normal;font-variant-numeric:normal;font-variant-east-asian:normal;fill:#ffffff;fill-opacity:1;stroke-width:0.0414625">e</tspan></text>
        <rect
           style="display:inline;fill:#ffffff;fill-opacity:1;stroke:#000000;stroke-width:0;stroke-miterlimit:4;stroke-dasharray:none;stroke-opacity:1"
           id="rect6836-1-9-9-7-8"
           width="0.35880554"
           height="1.2618878"
           x="253.95389"
           y="384.07068"
           ry="2.182647e-15"
           transform="matrix(0.99999899,-0.00142158,-0.63979913,0.76854218,0,0)" />
      </g>
      <text
         xml:space="preserve"
         style="font-style:normal;font-weight:normal;font-size:0.348544px;line-height:1.25;font-family:sans-serif;letter-spacing:0px;word-spacing:0px;fill:#ffffff;fill-opacity:1;stroke:none;stroke-width:0.00871363"
         x="29.463402"
         y="51.683125"
         id="text17672-44"><tspan
           sodipodi:role="line"
           id="tspan17670-3"
           x="29.463402"
           y="51.683125"
           style="fill:#ffffff;fill-opacity:1;stroke-width:0.00871363">TRIGGER</tspan></text>
    </g>
    <circle
       style="fill:#7015ff;fill-opacity:1;stroke:#ffffff;stroke-width:0.264999"
       id="path22165"
       cx="108.33939"
       cy="51.112186"
       r="5.1395388" />
    <circle
       style="fill:#ff15ff;fill-opacity:1;stroke:#ffffff;stroke-width:0.264999"
       id="path22165-7"
       cx="34.081532"
       cy="70.559158"
       r="5.1395388" />
    <circle
       style="fill:#7015ff;fill-opacity:1;stroke:#ffffff;stroke-width:0.264999"
       id="path22165-8"
       cx="91.406181"
       cy="70.559158"
       r="5.1395388" />
    <circle
       style="fill:#7015ff;fill-opacity:1;stroke:#ffffff;stroke-width:0.264999"
       id="path22165-6"
       cx="126.68575"
       cy="70.559158"
       r="5.1395388" />
    <circle
       style="fill:#7015ff;fill-opacity:1;stroke:#ffffff;stroke-width:0.264999"
       id="path22165-88"
       cx="142.9892"
       cy="70.559158"
       r="5.1395388" />
    <circle
       style="fill:#7015ff;fill-opacity:1;stroke:#ffffff;stroke-width:0.264999"
       id="path22165-4"
       cx="7.2162771"
       cy="70.559158"
       r="5.1395388" />
    <circle
       style="fill:#70caff;fill-opacity:1;stroke:#ffffff;stroke-width:0.264999"
       id="path22165-3"
       cx="20.579752"
       cy="70.559158"
       r="5.1395388" />
    <path
       style="fill:none;fill-rule:evenodd;stroke:#7015ff;stroke-width:0.365;stroke-linecap:butt;stroke-linejoin:miter;stroke-opacity:1;stroke-miterlimit:4;stroke-dasharray:none"
       d="m 79.172115,70.55916 7.094528,-1e-6"
       id="path22239"
       inkscape:connector-type="polyline"
       inkscape:connector-curvature="8"
       inkscape:connection-start="#g21479"
       inkscape:connection-end="#path22165-8" />
    <path
       style="fill:none;fill-rule:evenodd;stroke:#7015ff;stroke-width:0.365;stroke-linecap:butt;stroke-linejoin:miter;stroke-opacity:1;stroke-miterlimit:4;stroke-dasharray:none"
       d="m 96.54572,70.559158 h 25.00049"
       id="path22241"
       inkscape:connector-type="polyline"
       inkscape:connector-curvature="8"
       inkscape:connection-start="#path22165-8"
       inkscape:connection-end="#path22165-6" />
    <path
       style="fill:none;fill-rule:evenodd;stroke:#7015ff;stroke-width:0.365;stroke-linecap:butt;stroke-linejoin:miter;stroke-opacity:1;stroke-miterlimit:4;stroke-dasharray:none"
       d="m 131.82529,70.559158 h 6.02437"
       id="path22243"
       inkscape:connector-type="polyline"
       inkscape:connector-curvature="8"
       inkscape:connection-start="#path22165-6"
       inkscape:connection-end="#path22165-88" />
    <path
       style="fill:none;fill-rule:evenodd;stroke:#7015ff;stroke-width:0.365;stroke-linecap:butt;stroke-linejoin:miter;stroke-opacity:1;marker-end:url(#Arrow1Lend);stroke-miterlimit:4;stroke-dasharray:none"
       d="m 148.12874,70.559159 15.78932,1e-6"
       id="path22245"
       inkscape:connector-type="polyline"
       inkscape:connector-curvature="8"
       inkscape:connection-start="#path22165-88"
       inkscape:connection-end="#g20723" />
    <path
       style="fill:none;fill-rule:evenodd;stroke:#7015ff;stroke-width:0.365;stroke-linecap:butt;stroke-linejoin:miter;stroke-opacity:1;stroke-miterlimit:4;stroke-dasharray:none"
       d="m 12.355816,70.559158 h 3.084397"
       id="path22251"
       inkscape:connector-type="polyline"
       inkscape:connector-curvature="8"
       inkscape:connection-start="#path22165-4"
       inkscape:connection-end="#path22165-3" />
    <path
       style="fill:none;fill-rule:evenodd;stroke:#7015ff;stroke-width:0.365;stroke-linecap:butt;stroke-linejoin:miter;stroke-opacity:1;stroke-miterlimit:4;stroke-dasharray:none"
       d="m 25.719291,70.559158 h 3.222702"
       id="path22253"
       inkscape:connector-type="polyline"
       inkscape:connector-curvature="8"
       inkscape:connection-start="#path22165-3"
       inkscape:connection-end="#path22165-7" />
    <path
       style="fill:none;fill-rule:evenodd;stroke:#7015ff;stroke-width:0.365;stroke-linecap:butt;stroke-linejoin:miter;stroke-opacity:1;marker-end:url(#marker23326);stroke-miterlimit:4;stroke-dasharray:none"
       d="m 39.22107,70.559158 h 9.431208"
       id="path22255"
       inkscape:connector-type="orthogonal"
       inkscape:connector-curvature="8"
       inkscape:connection-start="#path22165-7"
       inkscape:connection-end="#g21479" />
    <path
       style="fill:none;fill-rule:evenodd;stroke:#000000;stroke-width:0.365;stroke-linecap:butt;stroke-linejoin:miter;stroke-opacity:1;marker-start:url(#marker22900);stroke-miterlimit:4;stroke-dasharray:none"
       d="m 113.16945,49.356857 c 2.23461,-1.613998 4.29577,-4.240312 5.93408,-7.453171"
       id="path22896"
       inkscape:connector-type="orthogonal"
       inkscape:connector-curvature="100"
       inkscape:connection-start="#path22165"
       inkscape:connection-end="#g22159" />
    <path
       style="display:inline;fill:none;fill-rule:evenodd;stroke:#000000;stroke-width:0.365;stroke-linecap:butt;stroke-linejoin:miter;stroke-opacity:1;marker-start:url(#marker23044);stroke-miterlimit:4;stroke-dasharray:none"
       d="m 63.878688,55.134242 0.15997,-6.362782 C 64.371154,35.546473 80.692104,26.354849 93.921224,26.319619 l 13.515836,-0.03599"
       id="path22952"
       inkscape:connector-type="orthogonal"
       inkscape:connector-curvature="100"
       sodipodi:nodetypes="cssc" />
    <path
       style="fill:none;fill-rule:evenodd;stroke:#000000;stroke-width:0.365;stroke-linecap:butt;stroke-linejoin:miter;stroke-opacity:1;marker-start:url(#marker23100);stroke-miterlimit:4;stroke-dasharray:none"
       d="m 179.2577,55.075612 v -2.217956 c 0,-13.229166 -13.22916,-26.458333 -26.45833,-26.458333 H 138.1498"
       id="path23096"
       inkscape:connector-type="orthogonal"
       inkscape:connector-curvature="100"
       inkscape:connection-start="#g20723"
       inkscape:connection-end="#g22159" />
    <text
       xml:space="preserve"
       style="font-style:normal;font-weight:normal;font-size:4.48987px;line-height:1.25;font-family:sans-serif;letter-spacing:0px;word-spacing:0px;fill:#000000;fill-opacity:1;stroke:none;stroke-width:0.112247"
       x="141.26089"
       y="24.418451"
       id="text23910"><tspan
         sodipodi:role="line"
         id="tspan23908"
         x="141.26089"
         y="24.418451"
         style="stroke-width:0.112247">subscriber</tspan></text>
    <text
       xml:space="preserve"
       style="font-style:normal;font-weight:normal;font-size:4.48987px;line-height:1.25;font-family:sans-serif;letter-spacing:0px;word-spacing:0px;fill:#000000;fill-opacity:1;stroke:none;stroke-width:0.112247"
       x="118.94016"
       y="46.863297"
       id="text23910-9"><tspan
         sodipodi:role="line"
         id="tspan23908-2"
         x="118.94016"
         y="46.863297"
         style="stroke-width:0.112247">filter</tspan></text>
    <text
       xml:space="preserve"
       style="font-style:normal;font-weight:normal;font-size:4.48987px;line-height:1.25;font-family:sans-serif;letter-spacing:0px;word-spacing:0px;fill:#000000;fill-opacity:1;stroke:none;stroke-width:0.112247"
       x="89.979187"
       y="24.337465"
       id="text23910-0"><tspan
         sodipodi:role="line"
         id="tspan23908-6"
         x="89.979187"
         y="24.337465"
         style="stroke-width:0.112247">broker</tspan></text>
  </g>
</svg>
