<?xml version="1.0" encoding="UTF-8" standalone="no"?>
<svg
   xmlns:dc="http://purl.org/dc/elements/1.1/"
   xmlns:cc="http://creativecommons.org/ns#"
   xmlns:rdf="http://www.w3.org/1999/02/22-rdf-syntax-ns#"
   xmlns:svg="http://www.w3.org/2000/svg"
   xmlns="http://www.w3.org/2000/svg"
   xmlns:sodipodi="http://sodipodi.sourceforge.net/DTD/sodipodi-0.dtd"
   xmlns:inkscape="http://www.inkscape.org/namespaces/inkscape"
   width="16"
   height="16"
   viewBox="0 0 4.2333332 4.2333335"
   version="1.1"
   id="svg8"
   inkscape:version="1.0.1 (3bc2e813f5, 2020-09-07)"
   sodipodi:docname="kn-logo-letters-orbit.svg">
  <defs
     id="defs2" />
  <sodipodi:namedview
     id="base"
     pagecolor="#ffffff"
     bordercolor="#666666"
     borderopacity="1.0"
     inkscape:pageopacity="0.0"
     inkscape:pageshadow="2"
     inkscape:zoom="22.627417"
     inkscape:cx="6.3114302"
     inkscape:cy="5.1969528"
     inkscape:document-units="mm"
     inkscape:current-layer="layer1"
     showgrid="false"
     inkscape:window-width="1791"
     inkscape:window-height="1048"
     inkscape:window-x="2559"
     inkscape:window-y="103"
     inkscape:window-maximized="0"
     units="px"
     inkscape:pagecheckerboard="true"
     inkscape:document-rotation="0" />
  <metadata
     id="metadata5">
    <rdf:RDF>
      <cc:Work
         rdf:about="">
        <dc:format>image/svg+xml</dc:format>
        <dc:type
           rdf:resource="http://purl.org/dc/dcmitype/StillImage" />
        <dc:title></dc:title>
      </cc:Work>
    </rdf:RDF>
  </metadata>
  <g
     inkscape:label="Layer 1"
     inkscape:groupmode="layer"
     id="layer1"
     transform="translate(0,-292.76665)">
    <path
       sodipodi:type="star"
       style="fill:none;fill-opacity:1;stroke:none;stroke-width:0.00968897;stroke-miterlimit:4;stroke-dasharray:none;stroke-opacity:1"
       id="path821"
       sodipodi:sides="7"
       sodipodi:cx="1.8609856"
       sodipodi:cy="294.99654"
       sodipodi:r1="1.4093304"
       sodipodi:r2="1.269763"
       sodipodi:arg1="1.1246908"
       sodipodi:arg2="1.5734898"
       inkscape:flatsided="true"
       inkscape:rounded="0"
       inkscape:randomized="0"
       inkscape:transform-center-x="0.00084463352"
       inkscape:transform-center-y="-0.068972764"
       d="m 2.4690489,296.26796 -1.2229666,-0.003 -0.75993186,-0.9582 0.27534706,-1.19158 1.1032841,-0.52765 1.1004256,0.53359 0.2689243,1.19304 z" />
    <path
       sodipodi:type="star"
       style="fill:none;fill-opacity:1;stroke:none;stroke-width:0.0352819;stroke-miterlimit:4;stroke-dasharray:none;stroke-opacity:1"
       id="path823"
       sodipodi:sides="9"
       sodipodi:cx="3.0760316"
       sodipodi:cy="294.18047"
       sodipodi:r1="0.68179286"
       sodipodi:r2="0.61042655"
       sodipodi:arg1="1.2193516"
       sodipodi:arg2="1.5684175"
       inkscape:flatsided="true"
       inkscape:rounded="0"
       inkscape:randomized="0"
       inkscape:transform-center-x="-0.0011764603"
       inkscape:transform-center-y="-0.032428789"
       d="m 3.310742,294.8206 -0.4663725,0.001 -0.3579751,-0.29893 -0.082077,-0.45909 0.2322254,-0.40445 0.4378673,-0.16055 0.4386262,0.15847 0.234147,0.40333 -0.079892,0.45948 z" />
    <path
       style="fill:#6594cb;fill-opacity:1;stroke:none;stroke-width:0.000176022;stroke-miterlimit:4;stroke-dasharray:none;stroke-opacity:1"
       d="m 2.6773846,294.65849 c -0.095204,-0.0795 -0.1735548,-0.14565 -0.1741129,-0.14699 -9.002e-4,-0.002 -0.07904,-0.43803 -0.079412,-0.44296 -8.24e-5,-8e-4 0.050554,-0.0903 0.1125255,-0.19823 l 0.1126751,-0.19624 0.2121039,-0.0778 c 0.1166571,-0.0428 0.2126279,-0.0778 0.2132681,-0.0778 6.324e-4,-2e-5 0.091544,0.0327 0.2020071,0.0726 0.1104634,0.0399 0.206082,0.0745 0.2124858,0.0768 l 0.011643,0.004 0.1137898,0.196 0.1137896,0.196 -0.03846,0.22137 c -0.021153,0.12176 -0.03872,0.22227 -0.039038,0.22335 -3.161e-4,8e-4 -0.078133,0.0673 -0.1729226,0.14728 l -0.1723449,0.14532 -0.00952,7.6e-4 c -0.00523,4.2e-4 -0.1075901,7.9e-4 -0.2274499,7.9e-4 l -0.2179265,1.1e-4 z m 0.3161284,-0.37815 c 0,-0.1542 1.75e-5,-0.15466 0.00691,-0.18111 0.010355,-0.0398 0.033405,-0.0695 0.063724,-0.0821 0.012464,-0.006 0.02354,-0.007 0.039397,-0.007 0.016884,-1.2e-4 0.023472,0.002 0.037479,0.008 0.018425,0.009 0.029905,0.0228 0.035171,0.0424 0.00633,0.0235 0.00707,0.0458 0.00709,0.2139 l 1.64e-5,0.147 h 0.085033 0.085033 l -4.005e-4,-0.17901 c -3.583e-4,-0.16299 -5.69e-4,-0.18022 -0.00241,-0.19241 -0.00496,-0.0328 -0.011661,-0.056 -0.022411,-0.0777 -0.025309,-0.0511 -0.067686,-0.0804 -0.1278355,-0.0883 -0.020014,-0.002 -0.056902,-0.002 -0.074609,0.002 -0.045701,0.009 -0.088374,0.0346 -0.122379,0.0731 l -0.00922,0.0104 -5.901e-4,-0.0374 -5.902e-4,-0.0374 h -0.084392 -0.084412 l -2.952e-4,0.26343 -2.95e-4,0.26342 h 0.084997 0.084997 z"
       id="path987"
       inkscape:connector-curvature="0" />
    <path
       id="path8764"
       style="fill:none;fill-opacity:1;stroke:#2592b0;stroke-width:0.129776;stroke-miterlimit:4;stroke-dasharray:none;stroke-opacity:1"
       d="m 229.67739,199.3851 a 2.4664359,1.4912266 0 0 1 -2.46644,1.49123 2.4664359,1.4912266 0 0 1 -2.46643,-1.49123 2.4664359,1.4912266 0 0 1 2.46643,-1.49123 2.4664359,1.4912266 0 0 1 2.46644,1.49123 z"
       transform="matrix(0.6805961,0.73265882,-0.76497495,0.64406003,0,0)" />
    <path
       style="fill:#1667b0;fill-opacity:1;stroke:none;stroke-width:0.000352039;stroke-miterlimit:4;stroke-dasharray:none;stroke-opacity:1"
       d="m 6.030461,295.18767 -0.2284488,-8e-4 -0.3769317,-0.47504 c -0.2742312,-0.3456 -0.3769296,-0.47662 -0.3769237,-0.48086 4.4e-6,-0.003 0.061266,-0.27062 0.1361366,-0.59426 l 0.1361286,-0.58844 0.5460881,-0.26133 c 0.3003484,-0.14373 0.5483438,-0.2614 0.5511006,-0.2615 0.00552,-1.9e-4 0.6155379,0.29447 0.615553,0.29734 4.7e-6,8e-4 -0.02131,0.0389 -0.047368,0.0842 l -0.047377,0.0824 0.042297,0.23651 c 0.039853,0.22283 0.042623,0.23676 0.047959,0.24104 0.00311,0.002 0.085825,0.0716 0.1838012,0.15365 l 0.1781387,0.14912 0.1426274,1.2e-4 c 0.078445,6e-5 0.1426276,7.9e-4 0.1426276,0.002 0,8e-4 0.023621,0.10635 0.052491,0.23441 0.02887,0.12807 0.052185,0.23407 0.051811,0.23556 -3.704e-4,0.002 -0.1714327,0.21561 -0.3801323,0.47582 l -0.379453,0.47309 -0.3808384,-5.6e-4 c -0.2094613,-3.2e-4 -0.4836405,-7.9e-4 -0.6092873,-0.002 z m 0.152769,-0.83378 v -0.22599 l 0.057633,-0.0732 c 0.043944,-0.0558 0.058186,-0.0725 0.059962,-0.07 0.00128,0.002 0.072475,0.13639 0.1582093,0.2992 l 0.1558806,0.29601 h 0.1475028 0.1475029 l -0.00277,-0.006 c -0.00152,-0.003 -0.099581,-0.18479 -0.2179051,-0.40424 -0.1397094,-0.25911 -0.2144156,-0.39994 -0.2130847,-0.40169 0.00112,-0.002 0.094733,-0.11847 0.2080141,-0.25999 0.1132805,-0.14152 0.2067729,-0.25863 0.2077609,-0.26023 0.00143,-0.002 -0.028781,-0.003 -0.1481228,-0.003 H 6.5938927 l -0.2047492,0.26147 -0.2047492,0.26148 -5.921e-4,-0.26148 -5.922e-4,-0.26147 H 6.0504891 5.9177683 v 0.66714 0.66715 H 6.0504991 6.18323 Z"
       id="path985-8"
       inkscape:connector-curvature="0" />
    <path
       style="fill:#6594cb;fill-opacity:1;stroke:none;stroke-width:0.00017602;stroke-miterlimit:4;stroke-dasharray:none;stroke-opacity:1"
       d="m 7.2311469,293.58736 c -0.095204,-0.0795 -0.1735548,-0.14565 -0.1741129,-0.14699 -9.002e-4,-0.002 -0.07904,-0.43803 -0.079412,-0.44296 -8.24e-5,-8e-4 0.050554,-0.0903 0.1125255,-0.19823 l 0.1126751,-0.19624 0.2121039,-0.0778 c 0.1166571,-0.0428 0.2126279,-0.0778 0.2132681,-0.0778 6.324e-4,-2e-5 0.091544,0.0327 0.202007,0.0726 0.1104635,0.0399 0.2060821,0.0745 0.2124858,0.0768 l 0.011644,0.004 0.1137899,0.196 0.1137896,0.196 -0.03846,0.22137 c -0.021153,0.12176 -0.03872,0.22227 -0.039038,0.22335 -3.175e-4,8e-4 -0.078133,0.0673 -0.1729227,0.14728 l -0.1723448,0.14532 -0.00952,7.6e-4 c -0.00523,4.2e-4 -0.1075902,7.9e-4 -0.2274499,7.9e-4 l -0.2179265,1.1e-4 z m 0.3161284,-0.37815 c 0,-0.1542 1.75e-5,-0.15466 0.00691,-0.18111 0.010355,-0.0398 0.033405,-0.0695 0.063724,-0.0821 0.012464,-0.006 0.02354,-0.007 0.039397,-0.007 0.016884,-1.2e-4 0.023472,0.002 0.037479,0.008 0.018426,0.009 0.029905,0.0228 0.035171,0.0424 0.00633,0.0235 0.00707,0.0458 0.00709,0.2139 l 1.64e-5,0.147 h 0.085033 0.085033 l -3.969e-4,-0.17901 c -3.704e-4,-0.16299 -5.556e-4,-0.18022 -0.00241,-0.19241 -0.00496,-0.0328 -0.01166,-0.056 -0.02241,-0.0777 -0.02531,-0.0511 -0.067686,-0.0804 -0.1278356,-0.0883 -0.020013,-0.002 -0.056902,-0.002 -0.074609,0.002 -0.045701,0.009 -0.088374,0.0346 -0.1223789,0.0731 l -0.00922,0.0104 -5.9e-4,-0.0374 -5.9e-4,-0.0374 h -0.0844 -0.084412 l -2.963e-4,0.26343 -2.964e-4,0.26342 h 0.084997 0.084997 z"
       id="path987-1"
       inkscape:connector-curvature="0" />
    <path
       id="path985"
       style="fill:#1667b0;fill-opacity:1;stroke:none;stroke-width:0.00133055;stroke-miterlimit:4;stroke-dasharray:none;stroke-opacity:1"
       d="M 7.0449219 3.1367188 C 7.0345025 3.1370967 6.0961126 3.5817685 4.9609375 4.125 L 2.8984375 5.1132812 L 2.3828125 7.3359375 C 2.0998362 8.5591438 1.8691572 9.5706927 1.8691406 9.5820312 C 1.8691183 9.5980564 2.2565044 10.094186 3.2929688 11.400391 L 4.71875 13.195312 L 5.5820312 13.199219 L 5.5820312 13.201172 C 6.0569168 13.205707 7.0931009 13.207775 7.8847656 13.208984 L 9.3242188 13.210938 L 10.757812 11.421875 C 11.546598 10.438404 12.191926 9.6306059 12.193359 9.6230469 C 12.194773 9.6174154 12.107162 9.216466 11.998047 8.7324219 C 11.888932 8.2484156 11.800781 7.8506799 11.800781 7.8476562 C 11.800781 7.843083 11.558204 7.8400705 11.261719 7.8398438 L 10.722656 7.8398438 L 10.048828 7.2753906 C 9.6785244 6.9652804 9.36527 6.7028716 9.3535156 6.6953125 C 9.3333481 6.6791361 9.3225005 6.6253953 9.171875 5.7832031 L 9.0136719 4.890625 L 9.1914062 4.578125 C 9.2898932 4.4069124 9.3711115 4.2627892 9.3710938 4.2597656 C 9.3710367 4.2489184 7.0657849 3.1360006 7.0449219 3.1367188 z M 5.15625 5.8554688 L 5.65625 5.8554688 L 6.1582031 5.8554688 L 6.1601562 6.84375 L 6.1621094 7.8320312 L 6.9375 6.84375 L 7.7109375 5.8554688 L 8.2773438 5.8554688 C 8.7283994 5.8554688 8.8432953 5.8596284 8.8378906 5.8671875 C 8.8341565 5.8732347 8.4808811 6.3147306 8.0527344 6.8496094 C 7.6245853 7.3844881 7.2698581 7.8244722 7.265625 7.8320312 C 7.2605948 7.8386454 7.542277 8.3722491 8.0703125 9.3515625 C 8.5175217 10.18098 8.8887864 10.867568 8.8945312 10.878906 L 8.9042969 10.902344 L 8.3476562 10.902344 L 7.7910156 10.902344 L 7.2011719 9.7832031 C 6.8771367 9.1678582 6.6083534 8.6599028 6.6035156 8.6523438 C 6.5968032 8.6428949 6.5430407 8.705118 6.3769531 8.9160156 L 6.1582031 9.1933594 L 6.1582031 10.046875 L 6.1582031 10.898438 L 5.65625 10.898438 L 5.15625 10.898438 L 5.15625 8.3769531 L 5.15625 5.8554688 z "
       transform="matrix(0.26458333,0,0,0.26458333,0,292.76665)" />
  </g>
</svg>
