<?xml version="1.0" encoding="UTF-8" standalone="no"?>
<svg
   xmlns:dc="http://purl.org/dc/elements/1.1/"
   xmlns:cc="http://creativecommons.org/ns#"
   xmlns:rdf="http://www.w3.org/1999/02/22-rdf-syntax-ns#"
   xmlns:svg="http://www.w3.org/2000/svg"
   xmlns="http://www.w3.org/2000/svg"
   xmlns:sodipodi="http://sodipodi.sourceforge.net/DTD/sodipodi-0.dtd"
   xmlns:inkscape="http://www.inkscape.org/namespaces/inkscape"
   width="16"
   height="16"
   viewBox="0 0 4.2333332 4.2333335"
   version="1.1"
   id="svg8"
   inkscape:version="1.0.1 (3bc2e813f5, 2020-09-07)"
   sodipodi:docname="kn-source.svg">
  <defs
     id="defs2" />
  <sodipodi:namedview
     id="base"
     pagecolor="#ffffff"
     bordercolor="#666666"
     borderopacity="1.0"
     inkscape:pageopacity="0.0"
     inkscape:pageshadow="2"
     inkscape:zoom="32"
     inkscape:cx="0.56846447"
     inkscape:cy="7.5752879"
     inkscape:document-units="mm"
     inkscape:current-layer="layer1"
     showgrid="false"
     inkscape:window-width="1821"
     inkscape:window-height="1141"
     inkscape:window-x="2055"
     inkscape:window-y="74"
     inkscape:window-maximized="0"
     units="px"
     inkscape:pagecheckerboard="true"
     inkscape:document-rotation="0"
     inkscape:snap-others="true"
     inkscape:snap-nodes="true" />
  <metadata
     id="metadata5">
    <rdf:RDF>
      <cc:Work
         rdf:about="">
        <dc:format>image/svg+xml</dc:format>
        <dc:type
           rdf:resource="http://purl.org/dc/dcmitype/StillImage" />
        <dc:title></dc:title>
      </cc:Work>
    </rdf:RDF>
  </metadata>
  <g
     inkscape:label="Layer 1"
     inkscape:groupmode="layer"
     id="layer1"
     transform="translate(0,-292.76665)">
    <path
       sodipodi:type="star"
       style="opacity:1;fill:none;fill-opacity:1;stroke:none;stroke-width:0.0121632;stroke-miterlimit:4;stroke-dasharray:none;stroke-opacity:1"
       id="path821"
       sodipodi:sides="7"
       sodipodi:cx="6.2384149"
       sodipodi:cy="294.99325"
       sodipodi:r1="1.769226"
       sodipodi:r2="1.5940177"
       sodipodi:arg1="1.1246908"
       sodipodi:arg2="1.5734898"
       inkscape:flatsided="true"
       inkscape:rounded="0"
       inkscape:randomized="0"
       d="m 7.001757,296.58933 -1.5352712,-0.004 -0.9539929,-1.2029 0.3456614,-1.49586 1.3850257,-0.6624 1.3814374,0.66985 0.3375985,1.4977 z"
       inkscape:transform-center-x="0.0010604645"
       inkscape:transform-center-y="-0.086589138" />
    <path
       sodipodi:type="star"
       style="opacity:1;fill:none;fill-opacity:1;stroke:none;stroke-width:0.04429172;stroke-miterlimit:4;stroke-dasharray:none;stroke-opacity:1"
       id="path823"
       sodipodi:sides="9"
       sodipodi:cx="3.3682271"
       sodipodi:cy="293.93885"
       sodipodi:r1="0.85589981"
       sodipodi:r2="0.76630896"
       sodipodi:arg1="1.2193516"
       sodipodi:arg2="1.5684175"
       inkscape:flatsided="true"
       inkscape:rounded="0"
       inkscape:randomized="0"
       d="m 3.6628744,294.74243 -0.5854683,0.001 -0.4493899,-0.37527 -0.1030371,-0.57633 0.2915279,-0.50772 0.5496839,-0.20155 0.5506366,0.19893 0.2939403,0.50633 -0.1002939,0.57682 z"
       inkscape:transform-center-x="-0.0014770388"
       inkscape:transform-center-y="-0.040690139" />
    <path
       id="path985"
       style="opacity:1;fill:#1667b0;fill-opacity:1;stroke:none;stroke-width:0.000441941;stroke-miterlimit:4;stroke-dasharray:none;stroke-opacity:1"
       d="m -3.7244719,293.51854 c -0.00346,1.2e-4 -0.3149001,0.14772 -0.6919474,0.32815 l -0.6852295,0.32814 -0.171049,0.73846 c -0.09399,0.40629 -0.1710434,0.74219 -0.171049,0.74621 -7.3e-6,0.005 0.1290955,0.16971 0.4733561,0.60358 l 0.4733562,0.59634 0.2868041,0.002 c 0.1577329,8.2e-4 0.5018607,0.002 0.7648112,0.002 l 0.478007,10e-4 0.4764567,-0.59428 c 0.2619944,-0.32665 0.4764971,-0.59498 0.4769734,-0.59686 4.686e-4,-0.002 -0.02887,-0.13534 -0.065112,-0.2961 -0.036242,-0.16077 -0.065629,-0.29296 -0.065629,-0.29404 0,-0.001 -0.08084,-0.002 -0.1793174,-0.002 L -2.5028411,295.0802 -2.7266,294.89313 c -0.1229963,-0.10295 -0.2265674,-0.18961 -0.2304769,-0.19275 -0.0067,-0.005 -0.010431,-0.0231 -0.060461,-0.30282 l -0.053227,-0.29663 0.059428,-0.10335 c 0.032711,-0.0569 0.05995,-0.1047 0.059945,-0.10594 -1.9e-5,-0.004 -0.7661513,-0.37334 -0.77308,-0.3731 z" />
    <path
       id="path987"
       style="opacity:1;fill:#6594cb;fill-opacity:1;stroke:none;stroke-width:0.000570088;stroke-miterlimit:4;stroke-dasharray:none;stroke-opacity:1"
       d="m 2.1113337,292.80276 c -0.00208,3e-5 -0.3127796,0.11352 -0.6906001,0.25205 l -0.68660152,0.25207 -0.36529837,0.63593 c -0.20070933,0.3496 -0.36423208,0.63774 -0.36396532,0.64128 0.00120484,0.0154 0.25438954,1.42754 0.25730999,1.43453 0.001807,0.005 0.25427345,0.21981 0.56261306,0.47728 l 0.56127926,0.46797 0.7052659,-9.9e-4 c 0.388194,-2e-4 0.7203008,-9.9e-4 0.7372635,-0.003 l 0.030662,-0.003 0.5586136,-0.47059 c 0.306998,-0.25888 0.5589222,-0.47246 0.5599461,-0.47597 0.00103,-0.003 0.058147,-0.32959 0.1266555,-0.72393 l 0.123988,-0.71726 -0.3679649,-0.63461 -0.3692978,-0.63461 -0.037332,-0.0128 c -0.020743,-0.008 -0.3301724,-0.11997 -0.6879341,-0.24921 -0.3577616,-0.12926 -0.6525567,-0.23477 -0.6546044,-0.23477 z" />
    <g
       id="g15653"
       transform="translate(4.476388,-0.11126916)"
       style="fill:#ffffff">
      <ellipse
         style="display:inline;opacity:1;fill:#ffffff;fill-opacity:1;stroke:#000000;stroke-width:0;stroke-miterlimit:4;stroke-dasharray:none;stroke-opacity:1"
         id="path6915"
         cx="295.02454"
         cy="-3.5036981"
         rx="0.21980365"
         ry="0.21895014"
         transform="rotate(90)" />
      <ellipse
         style="display:inline;opacity:1;fill:#ffffff;fill-opacity:1;stroke:#000000;stroke-width:0;stroke-miterlimit:4;stroke-dasharray:none;stroke-opacity:1"
         id="path6915-3"
         cx="207.17435"
         cy="-211.52129"
         rx="0.21980365"
         ry="0.21895014"
         transform="rotate(135)" />
      <ellipse
         style="display:inline;opacity:1;fill:#ffffff;fill-opacity:1;stroke:#000000;stroke-width:0;stroke-miterlimit:4;stroke-dasharray:none;stroke-opacity:1"
         id="path6915-8"
         cx="-2.0357955"
         cy="-296.49246"
         rx="0.21980365"
         ry="0.21895014"
         transform="scale(-1)" />
      <ellipse
         style="display:inline;opacity:1;fill:#ffffff;fill-opacity:1;stroke:#000000;stroke-width:0;stroke-miterlimit:4;stroke-dasharray:none;stroke-opacity:1"
         id="path6915-6"
         cx="-210.05339"
         cy="-208.64224"
         rx="0.21980365"
         ry="0.21895014"
         transform="rotate(-135)" />
      <ellipse
         style="display:inline;opacity:1;fill:#ffffff;fill-opacity:1;stroke:#000000;stroke-width:0;stroke-miterlimit:4;stroke-dasharray:none;stroke-opacity:1"
         id="path6915-2"
         cx="-295.02454"
         cy="0.56789136"
         rx="0.21980365"
         ry="0.21895014"
         transform="rotate(-90)" />
      <ellipse
         style="display:inline;opacity:1;fill:#ffffff;fill-opacity:1;stroke:#000000;stroke-width:0;stroke-miterlimit:4;stroke-dasharray:none;stroke-opacity:1"
         id="path6915-67"
         cx="-207.1743"
         cy="208.58553"
         rx="0.21980365"
         ry="0.21895014"
         transform="rotate(-44.99999)" />
      <ellipse
         style="display:inline;opacity:1;fill:#ffffff;fill-opacity:1;stroke:#000000;stroke-width:0;stroke-miterlimit:4;stroke-dasharray:none;stroke-opacity:1"
         id="path6915-5"
         cx="2.0357955"
         cy="293.55664"
         rx="0.21980365"
         ry="0.21895014" />
      <ellipse
         style="display:inline;opacity:1;fill:#ffffff;fill-opacity:1;stroke:#000000;stroke-width:0;stroke-miterlimit:4;stroke-dasharray:none;stroke-opacity:1"
         id="path6915-69"
         cx="210.05347"
         cy="205.70636"
         rx="0.21980365"
         ry="0.21895014"
         transform="rotate(45.000023)" />
      <rect
         style="display:inline;fill:#ffffff;fill-opacity:1;stroke:#000000;stroke-width:0;stroke-miterlimit:4;stroke-dasharray:none;stroke-opacity:1"
         id="rect6836-1-8"
         width="0.12246498"
         height="0.31367663"
         x="294.96542"
         y="-3.2389488"
         ry="5.4255653e-16"
         transform="rotate(90)" />
      <rect
         style="display:inline;fill:#ffffff;fill-opacity:1;stroke:#000000;stroke-width:0;stroke-miterlimit:4;stroke-dasharray:none;stroke-opacity:1"
         id="rect6836-1-8-7"
         width="0.12246498"
         height="0.31367663"
         x="207.11627"
         y="-211.2587"
         ry="5.4255653e-16"
         transform="rotate(135)" />
      <rect
         style="display:inline;fill:#ffffff;fill-opacity:1;stroke:#000000;stroke-width:0;stroke-miterlimit:4;stroke-dasharray:none;stroke-opacity:1"
         id="rect6836-1-8-2"
         width="0.12246498"
         height="0.31367663"
         x="-2.0946679"
         y="-296.23215"
         ry="5.4255653e-16"
         transform="scale(-1)" />
      <rect
         style="display:inline;fill:#ffffff;fill-opacity:1;stroke:#000000;stroke-width:0;stroke-miterlimit:4;stroke-dasharray:none;stroke-opacity:1"
         id="rect6836-1-8-8"
         width="0.12246498"
         height="0.31367663"
         x="-210.11443"
         y="-208.383"
         ry="5.4255653e-16"
         transform="rotate(-135)" />
      <rect
         style="display:inline;fill:#ffffff;fill-opacity:1;stroke:#000000;stroke-width:0;stroke-miterlimit:4;stroke-dasharray:none;stroke-opacity:1"
         id="rect6836-1-8-29"
         width="0.12246498"
         height="0.31367663"
         x="-295.08786"
         y="0.82792366"
         ry="5.4255653e-16"
         transform="rotate(-90)" />
      <rect
         style="display:inline;fill:#ffffff;fill-opacity:1;stroke:#000000;stroke-width:0;stroke-miterlimit:4;stroke-dasharray:none;stroke-opacity:1"
         id="rect6836-1-8-9"
         width="0.12246498"
         height="0.31367663"
         x="-207.23868"
         y="208.84772"
         ry="5.4255642e-16"
         transform="rotate(-44.99999)" />
      <rect
         style="display:inline;fill:#ffffff;fill-opacity:1;stroke:#000000;stroke-width:0;stroke-miterlimit:4;stroke-dasharray:none;stroke-opacity:1"
         id="rect6836-1-8-6"
         width="0.12246498"
         height="0.31367663"
         x="1.9722033"
         y="293.82111"
         ry="5.4255653e-16" />
      <rect
         style="display:inline;fill:#ffffff;fill-opacity:1;stroke:#000000;stroke-width:0;stroke-miterlimit:4;stroke-dasharray:none;stroke-opacity:1"
         id="rect6836-1-8-0"
         width="0.12246498"
         height="0.31367663"
         x="209.99203"
         y="205.97189"
         ry="5.4255642e-16"
         transform="rotate(45.000025)" />
      <text
         xml:space="preserve"
         style="font-style:normal;font-variant:normal;font-weight:600;font-stretch:normal;font-size:2.42406px;line-height:1.25;font-family:Montserrat;-inkscape-font-specification:'Montserrat, Semi-Bold';font-variant-ligatures:normal;font-variant-caps:normal;font-variant-numeric:normal;font-variant-east-asian:normal;letter-spacing:0px;word-spacing:0px;display:inline;fill:#ffffff;fill-opacity:1;stroke:none;stroke-width:0.0606015"
         x="1.2795526"
         y="295.67264"
         id="text7472"><tspan
           sodipodi:role="line"
           id="tspan7470"
           x="1.2795526"
           y="295.67264"
           style="font-style:normal;font-variant:normal;font-weight:600;font-stretch:normal;font-size:2.42406px;font-family:Montserrat;-inkscape-font-specification:'Montserrat, Semi-Bold';font-variant-ligatures:normal;font-variant-caps:normal;font-variant-numeric:normal;font-variant-east-asian:normal;fill:#ffffff;fill-opacity:1;stroke-width:0.0606015">e</tspan></text>
    </g>
    <g
       id="g15737"
       transform="matrix(0.95246048,0,0,0.95246048,4.2057398,17.532812)"
       style="fill:#ffffff">
      <text
         xml:space="preserve"
         style="font-style:normal;font-variant:normal;font-weight:600;font-stretch:normal;font-size:1.95874px;line-height:1.25;font-family:Montserrat;-inkscape-font-specification:'Montserrat, Semi-Bold';font-variant-ligatures:normal;font-variant-caps:normal;font-variant-numeric:normal;font-variant-east-asian:normal;letter-spacing:0px;word-spacing:0px;display:inline;fill:#ffffff;fill-opacity:1;stroke:none;stroke-width:0.0489684"
         x="1.0540503"
         y="295.56073"
         id="text7472-5"><tspan
           sodipodi:role="line"
           id="tspan7470-6"
           x="1.0540503"
           y="295.56073"
           style="font-style:normal;font-variant:normal;font-weight:600;font-stretch:normal;font-size:1.95874px;font-family:Montserrat;-inkscape-font-specification:'Montserrat, Semi-Bold';font-variant-ligatures:normal;font-variant-caps:normal;font-variant-numeric:normal;font-variant-east-asian:normal;fill:#ffffff;fill-opacity:1;stroke-width:0.0489684">e</tspan></text>
      <rect
         style="display:inline;fill:#ffffff;fill-opacity:1;stroke:#000000;stroke-width:0;stroke-miterlimit:4;stroke-dasharray:none;stroke-opacity:1"
         id="rect6836-1-8-9-7"
         width="0.14225888"
         height="0.36437586"
         x="294.96762"
         y="-0.87293112"
         ry="6.3024942e-16"
         transform="rotate(90)" />
      <g
         id="g14368"
         transform="matrix(0.05872322,0,0,0.05872322,0.51973739,293.54815)"
         style="display:inline;fill:#ffffff">
        <g
           id="g14357"
           transform="translate(0,0.32321547)"
           style="fill:#ffffff">
          <ellipse
             style="fill:#ffffff;fill-opacity:1;stroke:#000000;stroke-width:0;stroke-miterlimit:4;stroke-dasharray:none;stroke-opacity:1"
             id="path6915-7"
             cx="25.05979"
             cy="-45.478432"
             rx="4.3480296"
             ry="4.3311458"
             transform="rotate(90)" />
          <rect
             style="display:inline;fill:#ffffff;fill-opacity:1;stroke:#000000;stroke-width:0;stroke-miterlimit:4;stroke-dasharray:none;stroke-opacity:1"
             id="rect6836-1-8-4"
             width="2.4225321"
             height="6.2049708"
             x="23.889864"
             y="-40.241295"
             ry="1.0732543e-14"
             transform="rotate(90)" />
        </g>
        <g
           id="g13703"
           transform="translate(1.1374415)"
           style="fill:#ffffff">
          <ellipse
             style="display:inline;fill:#ffffff;fill-opacity:1;stroke:#000000;stroke-width:0;stroke-miterlimit:4;stroke-dasharray:none;stroke-opacity:1"
             id="path6915-3-0"
             cx="14.341574"
             cy="-57.883663"
             rx="4.3480296"
             ry="4.3311458"
             transform="rotate(120.81993)" />
          <rect
             style="display:inline;fill:#ffffff;fill-opacity:1;stroke:#000000;stroke-width:0;stroke-miterlimit:4;stroke-dasharray:none;stroke-opacity:1"
             id="rect6836-1-8-7-6"
             width="2.4225321"
             height="6.2049708"
             x="13.192532"
             y="-52.689426"
             ry="1.0732543e-14"
             transform="rotate(120.81993)" />
        </g>
        <g
           id="g13699"
           style="fill:#ffffff">
          <ellipse
             style="display:inline;fill:#ffffff;fill-opacity:1;stroke:#000000;stroke-width:0;stroke-miterlimit:4;stroke-dasharray:none;stroke-opacity:1"
             id="path6915-3-9"
             cx="-29.838108"
             cy="-32.850937"
             rx="4.3480296"
             ry="4.3311458"
             transform="matrix(-0.51234162,-0.85878173,-0.85878173,0.51234162,0,0)" />
          <rect
             style="display:inline;fill:#ffffff;fill-opacity:1;stroke:#000000;stroke-width:0;stroke-miterlimit:4;stroke-dasharray:none;stroke-opacity:1"
             id="rect6836-1-8-7-7"
             width="2.4225321"
             height="6.2049708"
             x="-30.987148"
             y="-27.6567"
             ry="1.0732543e-14"
             transform="matrix(-0.51234162,-0.85878173,-0.85878173,0.51234162,0,0)" />
        </g>
      </g>
    </g>
    <g
       id="g15816"
       transform="translate(0.09341403,-0.24305306)">
      <path
         id="path15800"
         style="color:#000000;font-style:normal;font-variant:normal;font-weight:normal;font-stretch:normal;font-size:medium;line-height:normal;font-family:sans-serif;font-variant-ligatures:normal;font-variant-position:normal;font-variant-caps:normal;font-variant-numeric:normal;font-variant-alternates:normal;font-variant-east-asian:normal;font-feature-settings:normal;font-variation-settings:normal;text-indent:0;text-align:start;text-decoration:none;text-decoration-line:none;text-decoration-style:solid;text-decoration-color:#000000;letter-spacing:normal;word-spacing:normal;text-transform:none;writing-mode:lr-tb;direction:ltr;text-orientation:mixed;dominant-baseline:auto;baseline-shift:baseline;text-anchor:start;white-space:normal;shape-padding:0;shape-margin:0;inline-size:0;clip-rule:nonzero;display:inline;overflow:visible;visibility:visible;opacity:1;isolation:auto;mix-blend-mode:normal;color-interpolation:sRGB;color-interpolation-filters:linearRGB;solid-color:#000000;solid-opacity:1;vector-effect:none;fill:#ffffff;fill-opacity:1;fill-rule:nonzero;stroke:none;stroke-width:0.744072;stroke-linecap:butt;stroke-linejoin:miter;stroke-miterlimit:4;stroke-dasharray:none;stroke-dashoffset:0;stroke-opacity:1;color-rendering:auto;image-rendering:auto;shape-rendering:auto;text-rendering:auto;enable-background:accumulate;stop-color:#000000;stop-opacity:1"
         d="M 3.2695312,4.2558594 V 4.6328125 11.3125 h 0.033203 C 3.2691483,11.145545 3.2641453,10.865869 3.296875,10.707031 3.3860174,10.274386 3.6415957,9.9100104 4.015625,9.6464844 V 5.3945312 l 2.4765625,1.9414063 c 0.2071268,-0.1725084 0.4507563,-0.2990076 0.7167969,-0.375 L 4.7148438,5.0019531 H 10.601562 L 8.1445312,6.9296875 C 8.4341385,6.9862205 8.7051584,7.0847627 8.9335938,7.25 L 11.308594,5.3886719 v 4.2382812 c 0.02366,0.033445 0.05874,0.067858 0.125,0.125 0.199702,0.1723465 0.386086,0.4319239 0.476562,0.6640629 0.02067,0.05291 0.05372,0.153932 0.07227,0.224609 0.03058,0.116409 0.0332,0.15125 0.0332,0.363281 0,0.181137 -0.0096,0.225016 -0.0293,0.308594 h 0.06836 V 4.2558594 Z"
         transform="matrix(0.26458333,0,0,0.26458333,0,292.76665)" />
      <path
         id="rect12903"
         style="fill:#ffffff;fill-opacity:1;stroke:#ffffff;stroke-width:0.1084;stroke-miterlimit:4;stroke-dasharray:none;stroke-opacity:1"
         d="m 2.0510812,294.44438 a 0.65413024,0.61189087 0 0 0 -0.5603779,0.29986 0.65413024,0.61189087 0 0 0 -0.4626178,0.42543 0.65413024,0.61189087 0 0 0 -0.31588923,0.52373 0.65413024,0.61189087 0 0 0 0.65413983,0.61186 0.65413024,0.61189087 0 0 0 0.00566,-3e-5 v 6.3e-4 h 1.3089873 v -5.6e-4 a 0.65413024,0.61189087 0 0 0 0.6533256,-0.6119 0.65413024,0.61189087 0 0 0 -0.2047547,-0.4446 0.65413024,0.61189087 0 0 0 -0.5228731,-0.51886 0.65413024,0.61189087 0 0 0 -0.5533369,-0.28556 0.65413024,0.61189087 0 0 0 -0.00226,0 z m 3.532e-4,0.0944 a 0.55318815,0.51746692 0 0 1 0.00191,0 0.55318815,0.51746692 0 0 1 0.419169,0.17985 0.65413024,0.61189087 0 0 0 -3.56e-5,0 0.55318815,0.51746692 0 0 1 0.070728,0.0976 0.55318815,0.51746692 0 0 1 2.484e-4,3e-5 0.55318815,0.51746692 0 0 1 0.024414,0.003 0.55318815,0.51746692 0 0 1 3.532e-4,7e-5 0.55318815,0.51746692 0 0 1 2.483e-4,3e-5 0.55318815,0.51746692 0 0 1 0.00134,2e-4 0.55318815,0.51746692 0 0 1 0.012879,0.002 0.55318815,0.51746692 0 0 1 0.00212,3.6e-4 0.55318815,0.51746692 0 0 1 2.483e-4,4e-5 0.55318815,0.51746692 0 0 1 0.008,0.001 0.55318815,0.51746692 0 0 1 2.484e-4,6e-5 0.55318815,0.51746692 0 0 1 0.008,0.002 0.55318815,0.51746692 0 0 1 2.483e-4,6e-5 0.55318815,0.51746692 0 0 1 0.00796,0.002 0.55318815,0.51746692 0 0 1 2.483e-4,6e-5 0.55318815,0.51746692 0 0 1 0.00793,0.002 0.55318815,0.51746692 0 0 1 2.483e-4,7e-5 0.55318815,0.51746692 0 0 1 0.00789,0.002 0.55318815,0.51746692 0 0 1 2.484e-4,7e-5 0.55318815,0.51746692 0 0 1 0.00785,0.002 0.55318815,0.51746692 0 0 1 2.483e-4,6e-5 0.55318815,0.51746692 0 0 1 0.00782,0.002 0.55318815,0.51746692 0 0 1 2.483e-4,7e-5 0.55318815,0.51746692 0 0 1 0.00778,0.002 0.55318815,0.51746692 0 0 1 2.484e-4,6e-5 0.55318815,0.51746692 0 0 1 0.00775,0.002 0.55318815,0.51746692 0 0 1 2.484e-4,6e-5 0.55318815,0.51746692 0 0 1 0.00771,0.003 0.55318815,0.51746692 0 0 1 4.249e-4,1.3e-4 0.55318815,0.51746692 0 0 1 0.3379675,0.31909 0.65413024,0.61189087 0 0 0 -2.483e-4,-1.3e-4 0.55318815,0.51746692 0 0 1 0.028942,0.13312 0.55318815,0.51746692 0 0 1 1.435e-4,1e-4 0.55318815,0.51746692 0 0 1 0.00644,0.005 0.55318815,0.51746692 0 0 1 0.00329,0.003 0.55318815,0.51746692 0 0 1 0.00308,0.003 0.55318815,0.51746692 0 0 1 0.00322,0.003 0.55318815,0.51746692 0 0 1 0.00304,0.003 0.55318815,0.51746692 0 0 1 0.00318,0.003 0.55318815,0.51746692 0 0 1 0.00301,0.003 0.55318815,0.51746692 0 0 1 0.00315,0.003 0.55318815,0.51746692 0 0 1 0.00294,0.003 0.55318815,0.51746692 0 0 1 0.00311,0.003 0.55318815,0.51746692 0 0 1 0.0029,0.003 0.55318815,0.51746692 0 0 1 0.00103,9.6e-4 0.55318815,0.51746692 0 0 1 0.00488,0.005 0.55318815,0.51746692 0 0 1 0.00301,0.003 0.55318815,0.51746692 0 0 1 0.00283,0.003 0.55318815,0.51746692 0 0 1 7.08e-4,7.3e-4 0.55318815,0.51746692 0 0 1 0.00502,0.005 0.55318815,0.51746692 0 0 1 5.679e-4,6e-4 0.55318815,0.51746692 0 0 1 0.010615,0.0112 0.55318815,0.51746692 0 0 1 0.00283,0.003 0.55318815,0.51746692 0 0 1 0.00262,0.003 0.55318815,0.51746692 0 0 1 0.00276,0.003 0.55318815,0.51746692 0 0 1 0.00258,0.003 0.55318815,0.51746692 0 0 1 3.55e-5,6e-5 0.55318815,0.51746692 0 0 1 0.010367,0.0123 0.55318815,0.51746692 0 0 1 0.00262,0.003 0.55318815,0.51746692 0 0 1 4.249e-4,5.7e-4 0.55318815,0.51746692 0 0 1 0.00456,0.006 0.55318815,0.51746692 0 0 1 0.00379,0.005 0.55318815,0.51746692 0 0 1 0.101546,0.29877 0.55318815,0.51746692 0 0 1 -0.5426163,0.51737 v 3e-4 H 2.5796154 1.4733662 1.3860792 v -5.3e-4 a 0.55318815,0.51746692 0 0 1 -0.014082,3e-4 0.55318815,0.51746692 0 0 1 -0.00566,3e-5 0.55318815,0.51746692 0 0 1 -0.55319534,-0.51747 0.55318815,0.51746692 0 0 1 0.19134514,-0.39141 0.65413024,0.61189087 0 0 0 0,3e-5 0.55318815,0.51746692 0 0 1 0.0064,-0.005 0.55318815,0.51746692 0 0 1 0.00651,-0.005 0.55318815,0.51746692 0 0 1 0.00655,-0.005 0.55318815,0.51746692 0 0 1 0.00665,-0.005 0.55318815,0.51746692 0 0 1 0.00672,-0.005 0.55318815,0.51746692 0 0 1 0.00683,-0.005 0.55318815,0.51746692 0 0 1 0.00686,-0.005 0.55318815,0.51746692 0 0 1 0.00697,-0.004 0.55318815,0.51746692 0 0 1 0.00442,-0.003 0.55318815,0.51746692 0 0 1 0.00142,-8.6e-4 0.55318815,0.51746692 0 0 1 0.00265,-0.002 0.55318815,0.51746692 0 0 1 0.00563,-0.003 0.55318815,0.51746692 0 0 1 0.00449,-0.003 0.55318815,0.51746692 0 0 1 0.00219,-0.001 0.55318815,0.51746692 0 0 1 0.0012,-6.7e-4 0.55318815,0.51746692 0 0 1 0.00577,-0.003 0.55318815,0.51746692 0 0 1 0.00159,-8.6e-4 0.55318815,0.51746692 0 0 1 0.013799,-0.007 0.55318815,0.51746692 0 0 1 0.00464,-0.002 0.55318815,0.51746692 0 0 1 0.00156,-7.6e-4 0.55318815,0.51746692 0 0 1 0.00276,-0.001 0.55318815,0.51746692 0 0 1 0.00534,-0.003 0.55318815,0.51746692 0 0 1 0.4421672,-0.40558 0.55318815,0.51746692 0 0 1 0.4938245,-0.28784 z" />
      <text
         xml:space="preserve"
         style="font-style:normal;font-variant:normal;font-weight:600;font-stretch:normal;font-size:1.84071px;line-height:1.25;font-family:Montserrat;-inkscape-font-specification:'Montserrat, Semi-Bold';font-variant-ligatures:normal;font-variant-caps:normal;font-variant-numeric:normal;font-variant-east-asian:normal;letter-spacing:0px;word-spacing:0px;display:inline;fill:#ffffff;fill-opacity:1;stroke:none;stroke-width:0.0460178"
         x="1.4500464"
         y="295.97025"
         id="text7472-4"><tspan
           sodipodi:role="line"
           id="tspan7470-7"
           x="1.4500464"
           y="295.97025"
           style="font-style:normal;font-variant:normal;font-weight:600;font-stretch:normal;font-size:1.84071px;font-family:Montserrat;-inkscape-font-specification:'Montserrat, Semi-Bold';font-variant-ligatures:normal;font-variant-caps:normal;font-variant-numeric:normal;font-variant-east-asian:normal;fill:#ffffff;fill-opacity:1;stroke-width:0.0460178">e</tspan></text>
    </g>
  </g>
</svg>
