<?xml version="1.0" encoding="UTF-8" standalone="no"?>
<svg
   xmlns:dc="http://purl.org/dc/elements/1.1/"
   xmlns:cc="http://creativecommons.org/ns#"
   xmlns:rdf="http://www.w3.org/1999/02/22-rdf-syntax-ns#"
   xmlns:svg="http://www.w3.org/2000/svg"
   xmlns="http://www.w3.org/2000/svg"
   xmlns:sodipodi="http://sodipodi.sourceforge.net/DTD/sodipodi-0.dtd"
   xmlns:inkscape="http://www.inkscape.org/namespaces/inkscape"
   width="50mm"
   height="50mm"
   viewBox="0 0 50 50"
   version="1.1"
   id="svg855"
   inkscape:version="1.0.1 (3bc2e813f5, 2020-09-07)"
   sodipodi:docname="revision-blue-gear.svg">
  <defs
     id="defs849" />
  <sodipodi:namedview
     id="base"
     pagecolor="#ffffff"
     bordercolor="#666666"
     borderopacity="1.0"
     inkscape:pageopacity="0.0"
     inkscape:pageshadow="2"
     inkscape:zoom="3.6203867"
     inkscape:cx="81.464686"
     inkscape:cy="102.87618"
     inkscape:document-units="mm"
     inkscape:current-layer="layer1"
     inkscape:document-rotation="0"
     showgrid="false"
     inkscape:window-width="2560"
     inkscape:window-height="1371"
     inkscape:window-x="4480"
     inkscape:window-y="32"
     inkscape:window-maximized="1"
     units="mm"
     inkscape:pagecheckerboard="true"
     inkscape:snap-text-baseline="false">
    <inkscape:grid
       type="xygrid"
       id="grid2210" />
  </sodipodi:namedview>
  <metadata
     id="metadata852">
    <rdf:RDF>
      <cc:Work
         rdf:about="">
        <dc:format>image/svg+xml</dc:format>
        <dc:type
           rdf:resource="http://purl.org/dc/dcmitype/StillImage" />
        <dc:title></dc:title>
        <cc:license
           rdf:resource="http://creativecommons.org/licenses/by/4.0/" />
      </cc:Work>
      <cc:License
         rdf:about="http://creativecommons.org/licenses/by/4.0/">
        <cc:permits
           rdf:resource="http://creativecommons.org/ns#Reproduction" />
        <cc:permits
           rdf:resource="http://creativecommons.org/ns#Distribution" />
        <cc:requires
           rdf:resource="http://creativecommons.org/ns#Notice" />
        <cc:requires
           rdf:resource="http://creativecommons.org/ns#Attribution" />
        <cc:permits
           rdf:resource="http://creativecommons.org/ns#DerivativeWorks" />
      </cc:License>
    </rdf:RDF>
  </metadata>
  <g
     inkscape:groupmode="layer"
     id="layer2"
     inkscape:label="Layer 2"
     style="display:none">
    <rect
       style="display:inline;opacity:1;fill:#3d8037;fill-opacity:0.400538;stroke-width:0.2732;stroke-miterlimit:4;stroke-dasharray:none"
       id="rect2212"
       width="75"
       height="75"
       x="0.059107598"
       y="0.091476537"
       ry="5.9678059e-14" />
    <rect
       style="display:inline;opacity:1;fill:#3d5238;fill-opacity:0.400538;stroke-width:0.273201;stroke-miterlimit:4;stroke-dasharray:none"
       id="rect2212-9"
       width="75"
       height="75"
       x="75.059105"
       y="0.091476537"
       ry="5.9678059e-14" />
    <rect
       style="display:inline;opacity:1;fill:#905238;fill-opacity:0.400538;stroke-width:0.273201;stroke-miterlimit:4;stroke-dasharray:none"
       id="rect2212-9-3"
       width="75"
       height="75"
       x="75.059105"
       y="75.091476"
       ry="5.9678059e-14" />
    <rect
       style="display:inline;opacity:1;fill:#9052ac;fill-opacity:0.400538;stroke-width:0.273201;stroke-miterlimit:4;stroke-dasharray:none"
       id="rect2212-9-3-6"
       width="75"
       height="75"
       x="0.059107598"
       y="75.091476"
       ry="5.9678059e-14" />
  </g>
  <g
     inkscape:label="Layer 1"
     inkscape:groupmode="layer"
     id="layer1"
     style="display:inline">
    <text
       xml:space="preserve"
       style="font-style:italic;font-variant:normal;font-weight:bold;font-stretch:normal;font-size:25.1612px;line-height:1.25;font-family:sans-serif;-inkscape-font-specification:'sans-serif, Bold Italic';font-variant-ligatures:normal;font-variant-caps:normal;font-variant-numeric:normal;font-variant-east-asian:normal;letter-spacing:0px;word-spacing:0px;fill:#3e94cb;fill-opacity:1;stroke:none;stroke-width:0.63;stroke-miterlimit:4;stroke-dasharray:none"
       x="70.245865"
       y="19.344162"
       id="text1420"><tspan
         sodipodi:role="line"
         id="tspan1418"
         x="70.245865"
         y="19.344162"
         style="font-style:italic;font-variant:normal;font-weight:bold;font-stretch:normal;font-size:25.1612px;font-family:sans-serif;-inkscape-font-specification:'sans-serif, Bold Italic';font-variant-ligatures:normal;font-variant-caps:normal;font-variant-numeric:normal;font-variant-east-asian:normal;fill:#3e94cb;fill-opacity:1;stroke-width:0.63;stroke-miterlimit:4;stroke-dasharray:none">R</tspan></text>
    <path
       id="path1424"
       style="fill:#3e94cb;fill-opacity:1;stroke-width:0.2764;stroke-miterlimit:4;stroke-dasharray:none"
       d="M 21.349759,7.8640633 A 20.777499,20.777491 0 0 0 0.62459599,28.641659 20.777499,20.777491 0 0 0 21.401723,49.418785 20.777499,20.777491 0 0 0 42.177446,28.927695 H 36.981994 A 15.583084,15.583084 0 0 1 21.401723,44.224271 15.583084,15.583084 0 0 1 5.8191119,28.641192 15.583084,15.583084 0 0 1 21.288432,13.058579 a 15.583084,15.583084 0 0 1 0.113291,0 15.583084,15.583084 0 0 1 0.499977,0.008 v -5.19643 a 20.777499,20.777491 0 0 0 -0.499977,-0.00609 20.777499,20.777491 0 0 0 -0.05196,0 z" />
    <path
       id="rect2097-62-0"
       style="display:inline;fill:#3e94cb;fill-opacity:1;stroke-width:0.489639;stroke-miterlimit:4;stroke-dasharray:none"
       d="m 39.298491,21.909812 -10.411086,10.408373 0.07771,0.07771 h 20.66584 l 0.07771,-0.07771 z" />
    <path
       id="path18310-4"
       style="display:inline;fill:#3e94cb;fill-opacity:1;stroke:#2592b0;stroke-width:0;stroke-miterlimit:4;stroke-dasharray:none"
       d="m 38.747498,3.2698828 a 7.9809702,7.9231395 19.978408 0 0 -1.698604,0.1824178 7.9809702,7.9231395 19.978408 0 0 -6.04511,9.4392174 7.9809702,7.9231395 19.978408 0 0 9.520348,6.055444 7.9809702,7.9231395 19.978408 0 0 6.04511,-9.439217 7.9809702,7.9231395 19.978408 0 0 -7.821744,-6.2378622 z m 0.01394,5.076176 a 2.8536138,2.8536138 0 0 1 0.02532,0 2.8536138,2.8536138 0 0 1 2.853571,2.8535732 2.8536138,2.8536138 0 0 1 -2.853571,2.853572 2.8536138,2.8536138 0 0 1 -2.853574,-2.853572 2.8536138,2.8536138 0 0 1 2.828251,-2.8535732 z" />
    <rect
       style="display:inline;fill:#3e94cb;fill-opacity:1;stroke:#2592b0;stroke-width:0;stroke-miterlimit:4;stroke-dasharray:none"
       id="rect18387-3"
       width="3.7102478"
       height="5.9490395"
       x="-21.023935"
       y="40.523788"
       ry="1.4327513e-14"
       transform="matrix(-0.211836,-0.97730523,0.97724799,-0.21209989,0,0)" />
    <rect
       style="display:inline;fill:#3e94cb;fill-opacity:1;stroke:#2592b0;stroke-width:0;stroke-miterlimit:4;stroke-dasharray:none"
       id="rect18387-3-4"
       width="3.7102478"
       height="5.9490395"
       x="25.81213"
       y="34.377983"
       ry="1.4327513e-14"
       transform="matrix(0.86053995,-0.50938295,0.50961528,0.86040238,0,0)" />
    <rect
       style="display:inline;fill:#3e94cb;fill-opacity:1;stroke:#2592b0;stroke-width:0;stroke-miterlimit:4;stroke-dasharray:none"
       id="rect18387-3-2"
       width="3.7102478"
       height="5.9490395"
       x="34.554596"
       y="-12.499179"
       ry="1.4327513e-14"
       transform="matrix(0.74635283,0.66555049,-0.66534892,0.74653253,0,0)" />
    <rect
       style="display:inline;fill:#3e94cb;fill-opacity:1;stroke:#2592b0;stroke-width:0;stroke-miterlimit:4;stroke-dasharray:none"
       id="rect18387-3-26"
       width="3.7102478"
       height="5.9490395"
       x="-7.076252"
       y="-35.024197"
       ry="1.4327513e-14"
       transform="matrix(-0.39964437,0.91667027,-0.91677814,-0.39939685,0,0)" />
    <rect
       style="display:inline;fill:#3e94cb;fill-opacity:1;stroke:#2592b0;stroke-width:0;stroke-miterlimit:4;stroke-dasharray:none"
       id="rect18387-3-41"
       width="3.7102478"
       height="5.9490395"
       x="-41.52956"
       y="-2.4915283"
       ry="1.4327513e-14"
       transform="matrix(-0.99542819,-0.09551293,0.09524414,-0.99545394,0,0)" />
  </g>
</svg>
