<?xml version="1.0" encoding="UTF-8" standalone="no"?>
<svg
   xmlns:dc="http://purl.org/dc/elements/1.1/"
   xmlns:cc="http://creativecommons.org/ns#"
   xmlns:rdf="http://www.w3.org/1999/02/22-rdf-syntax-ns#"
   xmlns:svg="http://www.w3.org/2000/svg"
   xmlns="http://www.w3.org/2000/svg"
   xmlns:sodipodi="http://sodipodi.sourceforge.net/DTD/sodipodi-0.dtd"
   xmlns:inkscape="http://www.inkscape.org/namespaces/inkscape"
   width="50mm"
   height="50mm"
   viewBox="0 0 50 50"
   version="1.1"
   id="svg855"
   inkscape:version="1.0.1 (3bc2e813f5, 2020-09-07)"
   sodipodi:docname="revision-save-gear-outside.svg">
  <defs
     id="defs849" />
  <sodipodi:namedview
     id="base"
     pagecolor="#ffffff"
     bordercolor="#666666"
     borderopacity="1.0"
     inkscape:pageopacity="0.0"
     inkscape:pageshadow="2"
     inkscape:zoom="2.8284271"
     inkscape:cx="41.195856"
     inkscape:cy="118.13292"
     inkscape:document-units="mm"
     inkscape:current-layer="layer1"
     inkscape:document-rotation="0"
     showgrid="false"
     inkscape:window-width="1900"
     inkscape:window-height="1139"
     inkscape:window-x="4592"
     inkscape:window-y="63"
     inkscape:window-maximized="0"
     units="mm"
     inkscape:pagecheckerboard="true">
    <inkscape:grid
       type="xygrid"
       id="grid2210" />
  </sodipodi:namedview>
  <metadata
     id="metadata852">
    <rdf:RDF>
      <cc:Work
         rdf:about="">
        <dc:format>image/svg+xml</dc:format>
        <dc:type
           rdf:resource="http://purl.org/dc/dcmitype/StillImage" />
        <dc:title></dc:title>
        <cc:license
           rdf:resource="http://creativecommons.org/licenses/by/4.0/" />
      </cc:Work>
      <cc:License
         rdf:about="http://creativecommons.org/licenses/by/4.0/">
        <cc:permits
           rdf:resource="http://creativecommons.org/ns#Reproduction" />
        <cc:permits
           rdf:resource="http://creativecommons.org/ns#Distribution" />
        <cc:requires
           rdf:resource="http://creativecommons.org/ns#Notice" />
        <cc:requires
           rdf:resource="http://creativecommons.org/ns#Attribution" />
        <cc:permits
           rdf:resource="http://creativecommons.org/ns#DerivativeWorks" />
      </cc:License>
    </rdf:RDF>
  </metadata>
  <g
     inkscape:groupmode="layer"
     id="layer3"
     inkscape:label="Layer 2"
     style="display:none">
    <rect
       style="display:inline;fill:#1a1a1a;fill-opacity:1;stroke:#000000;stroke-width:0"
       id="rect9364"
       width="50.11438"
       height="50.120899"
       x="-0.023077769"
       y="0.053396609"
       ry="3.9999444e-14" />
  </g>
  <g
     inkscape:label="Layer 1"
     inkscape:groupmode="layer"
     id="layer1"
     style="display:inline">
    <path
       id="path18310-4"
       style="fill:#3e94cb;fill-opacity:1;stroke:#2592b0;stroke-width:0;stroke-miterlimit:4;stroke-dasharray:none"
       d="m 38.675536,3.3295888 a 7.9809701,7.9231394 19.978408 0 0 -1.69861,0.182418 7.9809701,7.9231394 19.978408 0 0 -6.04511,9.4392172 7.9809701,7.9231394 19.978408 0 0 9.52035,6.055444 7.9809701,7.9231394 19.978408 0 0 6.04511,-9.4392172 7.9809701,7.9231394 19.978408 0 0 -7.82174,-6.237862 z m 0.0139,5.076176 a 2.8536138,2.8536138 0 0 1 0.0253,0 2.8536138,2.8536138 0 0 1 2.85357,2.8535722 2.8536138,2.8536138 0 0 1 -2.85357,2.853573 2.8536138,2.8536138 0 0 1 -2.85357,-2.853573 2.8536138,2.8536138 0 0 1 2.82825,-2.8535722 z" />
    <rect
       style="display:inline;fill:#3e94cb;fill-opacity:1;stroke:#2592b0;stroke-width:0;stroke-miterlimit:4;stroke-dasharray:none"
       id="rect18387-3"
       width="3.7102478"
       height="5.9490395"
       x="-21.067019"
       y="40.440811"
       ry="1.4327513e-14"
       transform="matrix(-0.211836,-0.97730523,0.97724799,-0.21209989,0,0)" />
    <rect
       style="display:inline;fill:#3e94cb;fill-opacity:1;stroke:#2592b0;stroke-width:0;stroke-miterlimit:4;stroke-dasharray:none"
       id="rect18387-3-4"
       width="3.7102478"
       height="5.9490395"
       x="25.719782"
       y="34.392712"
       ry="1.4327513e-14"
       transform="matrix(0.86053996,-0.50938294,0.50961529,0.86040238,0,0)" />
    <rect
       style="display:inline;fill:#3e94cb;fill-opacity:1;stroke:#2592b0;stroke-width:0;stroke-miterlimit:4;stroke-dasharray:none"
       id="rect18387-3-2"
       width="3.7102478"
       height="5.9490395"
       x="34.540596"
       y="-12.40672"
       ry="1.4327513e-14"
       transform="matrix(0.74635284,0.66555048,-0.66534892,0.74653253,0,0)" />
    <rect
       style="display:inline;fill:#3e94cb;fill-opacity:1;stroke:#2592b0;stroke-width:0;stroke-miterlimit:4;stroke-dasharray:none"
       id="rect18387-3-26"
       width="3.7102478"
       height="5.9490395"
       x="-6.992774"
       y="-34.98209"
       ry="1.4327513e-14"
       transform="matrix(-0.39964438,0.91667026,-0.91677814,-0.39939684,0,0)" />
    <rect
       style="display:inline;fill:#3e94cb;fill-opacity:1;stroke:#2592b0;stroke-width:0;stroke-miterlimit:4;stroke-dasharray:none"
       id="rect18387-3-41"
       width="3.7102478"
       height="5.9490395"
       x="-41.463612"
       y="-2.5578344"
       ry="1.4327513e-14"
       transform="matrix(-0.99542819,-0.09551293,0.09524414,-0.99545394,0,0)" />
    <path
       id="rect5180"
       style="fill:#000000;fill-opacity:1;stroke-width:0.188595"
       d="m 24.87323,14.655265 10.444381,10.444746 0.03435,-0.03434 V 50.001598 H 0.00671777 V 14.655265 Z" />
    <rect
       style="fill:#ffffff;fill-opacity:1;stroke-width:0.193073"
       id="rect5187"
       width="21.758883"
       height="12.514033"
       x="-23.814896"
       y="15.713596"
       ry="4.0494023e-14"
       transform="scale(-1,1)" />
    <rect
       style="fill:#000000;fill-opacity:1;stroke-width:0.187362"
       id="rect5189"
       width="4.1173205"
       height="10.481783"
       x="-20.722063"
       y="16.574368"
       ry="4.0494023e-14"
       transform="scale(-1,1)" />
    <path
       id="path18310-4-4"
       style="display:inline;fill:#3e94cb;fill-opacity:1;stroke:#2592b0;stroke-width:0;stroke-miterlimit:4;stroke-dasharray:none"
       d="m 99.36902,-44.025308 a 7.9809702,7.9231395 19.978408 0 0 -1.698604,0.182418 7.9809702,7.9231395 19.978408 0 0 -6.04511,9.439217 7.9809702,7.9231395 19.978408 0 0 9.520344,6.055444 7.9809702,7.9231395 19.978408 0 0 6.04511,-9.439217 7.9809702,7.9231395 19.978408 0 0 -7.82174,-6.237862 z m 0.01394,5.076176 a 2.8536138,2.8536138 0 0 1 0.02532,0 2.8536138,2.8536138 0 0 1 2.85357,2.853572 2.8536138,2.8536138 0 0 1 -2.85357,2.853573 2.8536138,2.8536138 0 0 1 -2.853571,-2.853573 2.8536138,2.8536138 0 0 1 2.82825,-2.853572 z" />
    <rect
       style="display:inline;fill:#3e94cb;fill-opacity:1;stroke:#2592b0;stroke-width:0;stroke-miterlimit:4;stroke-dasharray:none"
       id="rect18387-3-3"
       width="3.7102478"
       height="5.9490395"
       x="12.337379"
       y="109.78835"
       ry="1.4327513e-14"
       transform="matrix(-0.211836,-0.97730523,0.97724799,-0.21209989,0,0)" />
    <rect
       style="display:inline;fill:#3e94cb;fill-opacity:1;stroke:#2592b0;stroke-width:0;stroke-miterlimit:4;stroke-dasharray:none"
       id="rect18259-1"
       width="7.5244365"
       height="8.8895359"
       x="-66.268509"
       y="-72.671837"
       ry="1.8950238e-14"
       transform="matrix(-0.61075128,0.7918225,-0.78778442,-0.61595106,0,0)" />
    <rect
       style="display:inline;fill:#3e94cb;fill-opacity:1;stroke:#2592b0;stroke-width:0;stroke-miterlimit:4;stroke-dasharray:none"
       id="rect18259-4-4"
       width="7.5144606"
       height="8.9012346"
       x="-84.360931"
       y="-3.4933693"
       ry="1.8975174e-14"
       transform="matrix(-0.99994331,0.01064744,-0.01512397,-0.99988563,0,0)" />
    <rect
       style="display:inline;fill:#3e94cb;fill-opacity:1;stroke:#2592b0;stroke-width:0;stroke-miterlimit:4;stroke-dasharray:none"
       id="rect18259-9-9"
       width="7.5573072"
       height="8.850771"
       x="-42.083569"
       y="53.687866"
       ry="1.8867601e-14"
       transform="matrix(-0.63174438,-0.77517678,0.77226811,-0.63529676,0,0)" />
    <rect
       style="display:inline;fill:#3e94cb;fill-opacity:1;stroke:#2592b0;stroke-width:0;stroke-miterlimit:4;stroke-dasharray:none"
       id="rect18259-93-2"
       width="7.5482135"
       height="8.8615294"
       x="29.483662"
       y="56.153759"
       ry="1.8890534e-14"
       transform="matrix(0.20675023,-0.97839376,0.97702492,0.21312508,0,0)" />
    <rect
       style="display:inline;fill:#3e94cb;fill-opacity:1;stroke:#2592b0;stroke-width:0;stroke-miterlimit:4;stroke-dasharray:none"
       id="rect18259-6-0"
       width="7.5093861"
       height="8.9071712"
       x="75.565773"
       y="1.9262741"
       ry="1.8987833e-14"
       transform="matrix(0.89492249,-0.44622162,0.44470901,0.89567511,0,0)" />
    <rect
       style="display:inline;fill:#3e94cb;fill-opacity:1;stroke:#2592b0;stroke-width:0;stroke-miterlimit:4;stroke-dasharray:none"
       id="rect18259-0-6"
       width="7.5358105"
       height="8.8761597"
       x="62.288017"
       y="-68.229568"
       ry="1.8921725e-14"
       transform="matrix(0.90494619,0.42552601,-0.41893402,0.90801668,0,0)" />
    <rect
       style="display:inline;fill:#3e94cb;fill-opacity:1;stroke:#2592b0;stroke-width:0;stroke-miterlimit:4;stroke-dasharray:none"
       id="rect18259-5-8"
       width="7.5628138"
       height="8.844244"
       x="-1.0006827"
       y="-101.01266"
       ry="1.8853688e-14"
       transform="matrix(0.23582,0.97179675,-0.97216039,0.23431642,0,0)" />
    <path
       id="path18310-9"
       style="display:inline;fill:#3e94cb;fill-opacity:1;stroke:#2592b0;stroke-width:0;stroke-miterlimit:4;stroke-dasharray:none"
       d="m 80.23272,-31.203352 a 14.706688,14.600122 70.263479 0 0 -11.431861,5.654435 14.706688,14.600122 70.263479 0 0 2.62568,20.6245801 14.706688,14.600122 70.263479 0 0 20.497458,-2.545065 14.706688,14.600122 70.263479 0 0 -2.62568,-20.6245791 14.706688,14.600122 70.263479 0 0 -9.065597,-3.109371 z m 0.07441,7.020243 a 7.673994,7.673994 0 0 1 3.319695,0.729155 7.673994,7.673994 0 0 1 3.680396,10.209712 7.673994,7.673994 0 0 1 -10.209713,3.6798781 7.673994,7.673994 0 0 1 -3.67988,-10.2091941 7.673994,7.673994 0 0 1 6.889502,-4.409551 z" />
    <rect
       style="display:inline;fill:#3e94cb;fill-opacity:1;stroke:#2592b0;stroke-width:0;stroke-miterlimit:4;stroke-dasharray:none"
       id="rect18387-3-4-2"
       width="3.7102478"
       height="5.9490395"
       x="102.07339"
       y="24.558155"
       ry="1.4327513e-14"
       transform="matrix(0.86053995,-0.50938295,0.50961528,0.86040238,0,0)" />
    <rect
       style="display:inline;fill:#3e94cb;fill-opacity:1;stroke:#2592b0;stroke-width:0;stroke-miterlimit:4;stroke-dasharray:none"
       id="rect18387-3-2-6"
       width="3.7102478"
       height="5.9490395"
       x="48.342728"
       y="-88.144768"
       ry="1.4327513e-14"
       transform="matrix(0.74635283,0.66555049,-0.66534892,0.74653253,0,0)" />
    <rect
       style="display:inline;fill:#3e94cb;fill-opacity:1;stroke:#2592b0;stroke-width:0;stroke-miterlimit:4;stroke-dasharray:none"
       id="rect18387-3-26-6"
       width="3.7102478"
       height="5.9490395"
       x="-74.647499"
       y="-71.692886"
       ry="1.4327513e-14"
       transform="matrix(-0.39964439,0.91667026,-0.91677814,-0.39939684,0,0)" />
    <rect
       style="display:inline;fill:#3e94cb;fill-opacity:1;stroke:#2592b0;stroke-width:0;stroke-miterlimit:4;stroke-dasharray:none"
       id="rect18387-3-41-4"
       width="3.7102478"
       height="5.9490395"
       x="-97.370903"
       y="50.377579"
       ry="1.4327513e-14"
       transform="matrix(-0.99542819,-0.09551293,0.09524414,-0.99545394,0,0)" />
    <rect
       style="fill:#3e94cb;fill-opacity:1;stroke:#2592b0;stroke-width:0;stroke-miterlimit:4;stroke-dasharray:none"
       id="rect18259"
       width="5.5769849"
       height="6.5887742"
       x="-15.170336"
       y="-97.000931"
       ry="1.4045597e-14"
       transform="matrix(-0.61075128,0.7918225,-0.78778442,-0.61595106,0,0)" />
    <rect
       style="display:inline;fill:#3e94cb;fill-opacity:1;stroke:#2592b0;stroke-width:0;stroke-miterlimit:4;stroke-dasharray:none"
       id="rect18259-4"
       width="5.5695915"
       height="6.5974441"
       x="-74.967384"
       y="-56.178398"
       ry="1.4064079e-14"
       transform="matrix(-0.99994331,0.01064744,-0.01512397,-0.99988563,0,0)" />
    <rect
       style="display:inline;fill:#3e94cb;fill-opacity:1;stroke:#2592b0;stroke-width:0;stroke-miterlimit:4;stroke-dasharray:none"
       id="rect18259-9"
       width="5.6013489"
       height="6.5600424"
       x="-80.888176"
       y="16.29648"
       ry="1.3984348e-14"
       transform="matrix(-0.63174439,-0.77517677,0.77226811,-0.63529675,0,0)" />
    <rect
       style="display:inline;fill:#3e94cb;fill-opacity:1;stroke:#2592b0;stroke-width:0;stroke-miterlimit:4;stroke-dasharray:none"
       id="rect18259-93"
       width="5.5946083"
       height="6.5680161"
       x="-27.546846"
       y="65.63562"
       ry="1.4001345e-14"
       transform="matrix(0.20675023,-0.97839376,0.97702492,0.21312508,0,0)" />
    <rect
       style="display:inline;fill:#3e94cb;fill-opacity:1;stroke:#2592b0;stroke-width:0;stroke-miterlimit:4;stroke-dasharray:none"
       id="rect18259-6"
       width="5.5658302"
       height="6.6018453"
       x="44.10603"
       y="55.174477"
       ry="1.4073461e-14"
       transform="matrix(0.8949225,-0.44622161,0.44470901,0.89567511,0,0)" />
    <rect
       style="display:inline;fill:#3e94cb;fill-opacity:1;stroke:#2592b0;stroke-width:0;stroke-miterlimit:4;stroke-dasharray:none"
       id="rect18259-0"
       width="5.5854158"
       height="6.5788598"
       x="80.591461"
       y="-7.8379064"
       ry="1.4024463e-14"
       transform="matrix(0.9049462,0.42552601,-0.41893402,0.90801668,0,0)" />
    <rect
       style="display:inline;fill:#3e94cb;fill-opacity:1;stroke:#2592b0;stroke-width:0;stroke-miterlimit:4;stroke-dasharray:none"
       id="rect18259-5"
       width="5.6054301"
       height="6.5552044"
       x="54.325672"
       y="-75.140724"
       ry="1.3974035e-14"
       transform="matrix(0.23582,0.97179675,-0.97216039,0.23431642,0,0)" />
    <path
       id="path18310"
       style="fill:#3e94cb;fill-opacity:1;stroke:#2592b0;stroke-width:0;stroke-miterlimit:4;stroke-dasharray:none"
       d="m 72.717394,30.323184 a 10.900349,10.821364 70.263479 0 0 -8.473102,4.190972 10.900349,10.821364 70.263479 0 0 1.946109,15.286591 10.900349,10.821364 70.263479 0 0 15.19237,-1.886359 10.900349,10.821364 70.263479 0 0 -1.946109,-15.286591 10.900349,10.821364 70.263479 0 0 -6.719268,-2.304613 z m 0.05515,5.203286 a 5.6878349,5.6878349 0 0 1 2.460502,0.540437 5.6878349,5.6878349 0 0 1 2.727847,7.567267 5.6878349,5.6878349 0 0 1 -7.567267,2.727463 5.6878349,5.6878349 0 0 1 -2.727464,-7.566882 5.6878349,5.6878349 0 0 1 5.106382,-3.268285 z" />
    <circle
       style="fill:#ffffff;fill-opacity:1;stroke-width:0.237151"
       id="path5263"
       cx="16.632811"
       cy="36.890484"
       r="5.2089357" />
  </g>
</svg>
