<?xml version="1.0" encoding="UTF-8" standalone="no"?>
<svg
   xmlns:dc="http://purl.org/dc/elements/1.1/"
   xmlns:cc="http://creativecommons.org/ns#"
   xmlns:rdf="http://www.w3.org/1999/02/22-rdf-syntax-ns#"
   xmlns:svg="http://www.w3.org/2000/svg"
   xmlns="http://www.w3.org/2000/svg"
   xmlns:sodipodi="http://sodipodi.sourceforge.net/DTD/sodipodi-0.dtd"
   xmlns:inkscape="http://www.inkscape.org/namespaces/inkscape"
   width="50mm"
   height="50mm"
   viewBox="0 0 50 50"
   version="1.1"
   id="svg855"
   inkscape:version="1.0.1 (3bc2e813f5, 2020-09-07)"
   sodipodi:docname="service-gear-kn.svg">
  <defs
     id="defs849" />
  <sodipodi:namedview
     id="base"
     pagecolor="#ffffff"
     bordercolor="#666666"
     borderopacity="1.0"
     inkscape:pageopacity="0.0"
     inkscape:pageshadow="2"
     inkscape:zoom="4"
     inkscape:cx="57.04583"
     inkscape:cy="109.40524"
     inkscape:document-units="mm"
     inkscape:current-layer="layer1"
     inkscape:document-rotation="0"
     showgrid="false"
     inkscape:window-width="2560"
     inkscape:window-height="1371"
     inkscape:window-x="4480"
     inkscape:window-y="32"
     inkscape:window-maximized="1"
     units="mm"
     inkscape:pagecheckerboard="true">
    <inkscape:grid
       type="xygrid"
       id="grid2210" />
  </sodipodi:namedview>
  <metadata
     id="metadata852">
    <rdf:RDF>
      <cc:Work
         rdf:about="">
        <dc:format>image/svg+xml</dc:format>
        <dc:type
           rdf:resource="http://purl.org/dc/dcmitype/StillImage" />
        <dc:title></dc:title>
        <cc:license
           rdf:resource="http://creativecommons.org/licenses/by/4.0/" />
      </cc:Work>
      <cc:License
         rdf:about="http://creativecommons.org/licenses/by/4.0/">
        <cc:permits
           rdf:resource="http://creativecommons.org/ns#Reproduction" />
        <cc:permits
           rdf:resource="http://creativecommons.org/ns#Distribution" />
        <cc:requires
           rdf:resource="http://creativecommons.org/ns#Notice" />
        <cc:requires
           rdf:resource="http://creativecommons.org/ns#Attribution" />
        <cc:permits
           rdf:resource="http://creativecommons.org/ns#DerivativeWorks" />
      </cc:License>
    </rdf:RDF>
  </metadata>
  <g
     inkscape:groupmode="layer"
     id="layer3"
     inkscape:label="Layer 2"
     style="display:none">
    <rect
       style="display:inline;fill:#1a1a1a;fill-opacity:1;stroke:#000000;stroke-width:0"
       id="rect9364"
       width="50.11438"
       height="50.120899"
       x="-0.023077769"
       y="0.053396609"
       ry="3.9999444e-14" />
  </g>
  <g
     inkscape:label="Layer 1"
     inkscape:groupmode="layer"
     id="layer1"
     style="display:inline">
    <path
       id="path18310-4"
       style="fill:#3e94cb;fill-opacity:1;stroke:#2592b0;stroke-width:0;stroke-miterlimit:4;stroke-dasharray:none"
       d="m 66.063409,-20.385658 a 7.9809701,7.9231394 46.064612 0 0 -7.595402,6.050277 7.9809701,7.9231394 46.064612 0 0 5.887495,9.6247351 7.9809701,7.9231394 46.064612 0 0 9.579777,-5.8192831 7.9809701,7.9231394 46.064612 0 0 -5.887495,-9.625252 7.9809701,7.9231394 46.064612 0 0 -1.984375,-0.230477 z m 0.112654,5.09943 a 2.8536138,2.8536138 0 0 1 0.02532,0 2.8536138,2.8536138 0 0 1 2.853573,2.853573 2.8536138,2.8536138 0 0 1 -2.853573,2.8535724 2.8536138,2.8536138 0 0 1 -2.853571,-2.8535724 2.8536138,2.8536138 0 0 1 2.82825,-2.853573 z" />
    <rect
       style="fill:#3e94cb;fill-opacity:1;stroke:#2592b0;stroke-width:0;stroke-miterlimit:4;stroke-dasharray:none"
       id="rect18387"
       width="3.7940674"
       height="4.5014362"
       x="-29.785749"
       y="-71.529388"
       ry="1.0841142e-14"
       transform="rotate(103.82201)" />
    <rect
       style="display:inline;fill:#3e94cb;fill-opacity:1;stroke:#2592b0;stroke-width:0;stroke-miterlimit:4;stroke-dasharray:none"
       id="rect18387-3"
       width="3.7940676"
       height="4.5014362"
       x="-68.878838"
       y="-3.0906971"
       ry="1.0841143e-14"
       transform="rotate(175.42923)" />
    <rect
       style="display:inline;fill:#3e94cb;fill-opacity:1;stroke:#2592b0;stroke-width:0;stroke-miterlimit:4;stroke-dasharray:none"
       id="rect18387-1"
       width="3.7940676"
       height="4.5014362"
       x="-15.426597"
       y="55.804459"
       ry="1.0841143e-14"
       transform="rotate(-112.22346)" />
    <rect
       style="display:inline;fill:#3e94cb;fill-opacity:1;stroke:#2592b0;stroke-width:0;stroke-miterlimit:4;stroke-dasharray:none"
       id="rect18387-4"
       width="3.7940676"
       height="4.5014362"
       x="56.580536"
       y="23.198997"
       ry="1.0841143e-14"
       transform="rotate(-40.392075)" />
    <rect
       style="display:inline;fill:#3e94cb;fill-opacity:1;stroke:#2592b0;stroke-width:0;stroke-miterlimit:4;stroke-dasharray:none"
       id="rect18387-6"
       width="3.7940676"
       height="4.5014362"
       x="48.027111"
       y="-55.396942"
       ry="1.0841143e-14"
       transform="rotate(31.532812)" />
    <rect
       style="fill:#3e94cb;fill-opacity:1;stroke:#2592b0;stroke-width:0;stroke-miterlimit:4;stroke-dasharray:none"
       id="rect18259"
       width="7.524436"
       height="8.8895359"
       x="21.552923"
       y="-44.791264"
       ry="1.8950238e-14"
       transform="matrix(-0.21587465,0.97642109,-0.9749787,-0.22229831,0,0)" />
    <rect
       style="display:inline;fill:#3e94cb;fill-opacity:1;stroke:#2592b0;stroke-width:0;stroke-miterlimit:4;stroke-dasharray:none"
       id="rect18259-4"
       width="7.5144606"
       height="8.9012337"
       x="-7.9758978"
       y="-55.051868"
       ry="1.8975174e-14"
       transform="matrix(-0.90041701,0.43502782,-0.43905453,-0.89846042,0,0)" />
    <rect
       style="display:inline;fill:#3e94cb;fill-opacity:1;stroke:#2592b0;stroke-width:0;stroke-miterlimit:4;stroke-dasharray:none"
       id="rect18259-9"
       width="7.5573072"
       height="8.850771"
       x="-34.49498"
       y="-37.999062"
       ry="1.8867601e-14"
       transform="matrix(-0.90149997,-0.43277917,0.42863561,-0.90347746,0,0)" />
    <rect
       style="display:inline;fill:#3e94cb;fill-opacity:1;stroke:#2592b0;stroke-width:0;stroke-miterlimit:4;stroke-dasharray:none"
       id="rect18259-93"
       width="7.5482135"
       height="8.8615294"
       x="-37.793018"
       y="-6.9884024"
       ry="1.8890534e-14"
       transform="matrix(-0.22911585,-0.97339916,0.97487233,-0.2227643,0,0)" />
    <rect
       style="display:inline;fill:#3e94cb;fill-opacity:1;stroke:#2592b0;stroke-width:0;stroke-miterlimit:4;stroke-dasharray:none"
       id="rect18259-6"
       width="7.5093861"
       height="8.9071712"
       x="-15.435825"
       y="15.054946"
       ry="1.8987833e-14"
       transform="matrix(0.62007316,-0.78454399,0.78349526,0.62139776,0,0)" />
    <rect
       style="display:inline;fill:#3e94cb;fill-opacity:1;stroke:#2592b0;stroke-width:0;stroke-miterlimit:4;stroke-dasharray:none"
       id="rect18259-0"
       width="7.5358105"
       height="8.8761597"
       x="15.577725"
       y="11.331028"
       ry="1.8921725e-14"
       transform="matrix(0.99999999,1.2153617e-4,0.00715043,0.99997444,0,0)" />
    <rect
       style="display:inline;fill:#3e94cb;fill-opacity:1;stroke:#2592b0;stroke-width:0;stroke-miterlimit:4;stroke-dasharray:none"
       id="rect18259-5"
       width="7.5628138"
       height="8.844244"
       x="32.192879"
       y="-15.194886"
       ry="1.8853688e-14"
       transform="matrix(0.62683451,0.77915242,-0.78012115,0.62562847,0,0)" />
    <path
       id="path18310"
       style="fill:#3e94cb;fill-opacity:1;stroke:#2592b0;stroke-width:0;stroke-miterlimit:4;stroke-dasharray:none"
       d="M 73.445312 59.607422 A 55.584335 55.181565 45.086486 0 0 19.859375 102.66016 A 55.584335 55.181565 45.086486 0 0 62.001953 168.98438 A 55.584335 55.181565 45.086486 0 0 128.01953 127.32227 A 55.584335 55.181565 45.086486 0 0 85.876953 60.998047 A 55.584335 55.181565 45.086486 0 0 73.445312 59.607422 z M 73.939453 85.986328 A 29.004072 29.004072 0 0 1 102.94336 114.99023 A 29.004072 29.004072 0 0 1 73.939453 143.99609 A 29.004072 29.004072 0 0 1 44.935547 114.99023 A 29.004072 29.004072 0 0 1 73.939453 85.986328 z "
       transform="scale(0.26458333)" />
    <text
       xml:space="preserve"
       style="font-style:normal;font-variant:normal;font-weight:bold;font-stretch:normal;font-size:17.8449px;line-height:1.25;font-family:sans-serif;-inkscape-font-specification:'sans-serif, Bold';font-variant-ligatures:normal;font-variant-caps:normal;font-variant-numeric:normal;font-variant-east-asian:normal;letter-spacing:0px;word-spacing:0px;fill:#3e94cb;fill-opacity:1;stroke:none;stroke-width:0.446122"
       x="28.579874"
       y="13.094687"
       id="text1742"
       transform="scale(0.89729997,1.1144545)"><tspan
         sodipodi:role="line"
         id="tspan1740"
         x="28.579874"
         y="13.094687"
         style="font-style:normal;font-variant:normal;font-weight:bold;font-stretch:normal;font-size:17.8449px;font-family:sans-serif;-inkscape-font-specification:'sans-serif, Bold';font-variant-ligatures:normal;font-variant-caps:normal;font-variant-numeric:normal;font-variant-east-asian:normal;fill:#3e94cb;fill-opacity:1;stroke-width:0.446122">KN</tspan></text>
  </g>
</svg>
