<?xml version="1.0" encoding="UTF-8" standalone="no"?>
<svg
   xmlns:dc="http://purl.org/dc/elements/1.1/"
   xmlns:cc="http://creativecommons.org/ns#"
   xmlns:rdf="http://www.w3.org/1999/02/22-rdf-syntax-ns#"
   xmlns:svg="http://www.w3.org/2000/svg"
   xmlns="http://www.w3.org/2000/svg"
   xmlns:sodipodi="http://sodipodi.sourceforge.net/DTD/sodipodi-0.dtd"
   xmlns:inkscape="http://www.inkscape.org/namespaces/inkscape"
   width="50mm"
   height="50mm"
   viewBox="0 0 50 50"
   version="1.1"
   id="svg855"
   inkscape:version="1.0.1 (3bc2e813f5, 2020-09-07)"
   sodipodi:docname="service-7gear.svg">
  <defs
     id="defs849" />
  <sodipodi:namedview
     id="base"
     pagecolor="#ffffff"
     bordercolor="#666666"
     borderopacity="1.0"
     inkscape:pageopacity="0.0"
     inkscape:pageshadow="2"
     inkscape:zoom="2.8284271"
     inkscape:cx="126.18005"
     inkscape:cy="22.789639"
     inkscape:document-units="mm"
     inkscape:current-layer="layer1"
     inkscape:document-rotation="0"
     showgrid="false"
     inkscape:window-width="2560"
     inkscape:window-height="1371"
     inkscape:window-x="1920"
     inkscape:window-y="32"
     inkscape:window-maximized="1"
     units="mm"
     inkscape:pagecheckerboard="true">
    <inkscape:grid
       type="xygrid"
       id="grid2210" />
  </sodipodi:namedview>
  <metadata
     id="metadata852">
    <rdf:RDF>
      <cc:Work
         rdf:about="">
        <dc:format>image/svg+xml</dc:format>
        <dc:type
           rdf:resource="http://purl.org/dc/dcmitype/StillImage" />
        <dc:title />
        <cc:license
           rdf:resource="http://creativecommons.org/licenses/by/4.0/" />
      </cc:Work>
      <cc:License
         rdf:about="http://creativecommons.org/licenses/by/4.0/">
        <cc:permits
           rdf:resource="http://creativecommons.org/ns#Reproduction" />
        <cc:permits
           rdf:resource="http://creativecommons.org/ns#Distribution" />
        <cc:requires
           rdf:resource="http://creativecommons.org/ns#Notice" />
        <cc:requires
           rdf:resource="http://creativecommons.org/ns#Attribution" />
        <cc:permits
           rdf:resource="http://creativecommons.org/ns#DerivativeWorks" />
      </cc:License>
    </rdf:RDF>
  </metadata>
  <g
     inkscape:groupmode="layer"
     id="layer3"
     inkscape:label="Layer 2"
     style="display:none">
    <rect
       style="display:inline;fill:#1a1a1a;fill-opacity:1;stroke:#000000;stroke-width:0"
       id="rect9364"
       width="50.11438"
       height="50.120899"
       x="-0.023077769"
       y="0.053396609"
       ry="3.9999444e-14" />
  </g>
  <g
     inkscape:label="Layer 1"
     inkscape:groupmode="layer"
     id="layer1"
     style="display:inline">
    <rect
       style="display:inline;fill:#2592b0;fill-opacity:1;stroke-width:0.325868;stroke-miterlimit:4;stroke-dasharray:none"
       id="rect2097-62-0-9-91-4"
       width="9.0889225"
       height="10.561645"
       x="-27.140959"
       y="17.303759"
       ry="2.9933135e-14"
       transform="matrix(0.70603226,0.70817967,-0.70831088,0.70590063,0,0)" />
    <rect
       style="display:inline;fill:#2592b0;fill-opacity:1;stroke-width:0.325868;stroke-miterlimit:4;stroke-dasharray:none"
       id="rect2097-62-0-9"
       width="9.0720139"
       height="10.581408"
       x="6.7152829"
       y="22.023016"
       ry="2.9989151e-14"
       transform="matrix(3.2932119e-4,0.99999995,-0.9999937,-0.00355039,0,0)" />
    <rect
       style="display:inline;fill:#2592b0;fill-opacity:1;stroke-width:0.325868;stroke-miterlimit:4;stroke-dasharray:none"
       id="rect2097-62-0-9-1"
       width="9.0552397"
       height="10.600929"
       x="33.866913"
       y="1.4356048"
       ry="3.0044475e-14"
       transform="matrix(-0.7081922,0.70601969,-0.70591477,-0.70829678,0,0)" />
    <rect
       style="display:inline;fill:#2592b0;fill-opacity:1;stroke-width:0.325868;stroke-miterlimit:4;stroke-dasharray:none"
       id="rect2097-62-0-9-2"
       width="9.0889225"
       height="10.561644"
       x="18.050175"
       y="-59.479679"
       ry="2.9933135e-14"
       transform="matrix(-0.70603261,-0.70817933,0.70831052,-0.70590099,0,0)" />
    <rect
       style="display:inline;fill:#2592b0;fill-opacity:1;stroke-width:0.325869;stroke-miterlimit:4;stroke-dasharray:none"
       id="rect2097-62-0-9-15"
       width="9.0720139"
       height="10.581408"
       x="-15.789174"
       y="-64.27787"
       ry="2.9989151e-14"
       transform="matrix(-3.2932119e-4,-0.99999995,0.9999937,0.00355039,0,0)" />
    <rect
       style="display:inline;fill:#2592b0;fill-opacity:1;stroke-width:0.325868;stroke-miterlimit:4;stroke-dasharray:none"
       id="rect2097-62-0-9-9"
       width="9.0552397"
       height="10.600929"
       x="-42.924034"
       y="-43.76841"
       ry="3.0044475e-14"
       transform="matrix(0.70819231,-0.70601958,0.70591465,0.7082969,0,0)" />
    <rect
       style="display:inline;fill:#2592b0;fill-opacity:1;stroke-width:0.325869;stroke-miterlimit:4;stroke-dasharray:none"
       id="rect2097-62-0-9-91"
       width="9.0721798"
       height="10.581202"
       x="-47.68557"
       y="-9.8819981"
       ry="2.9988565e-14"
       transform="matrix(0.99999428,0.0033834,1.6231819e-4,0.99999999,0,0)" />
    <rect
       style="fill:#2592b0;fill-opacity:1;stroke:#2592b0;stroke-width:0;stroke-miterlimit:4;stroke-dasharray:none"
       id="rect18259"
       width="9.6260843"
       height="11.37247"
       x="14.164965"
       y="-54.299744"
       ry="2.4243223e-14"
       transform="matrix(-0.21587465,0.97642109,-0.9749787,-0.2222983,0,0)" />
    <rect
       style="display:inline;fill:#2592b0;fill-opacity:1;stroke:#2592b0;stroke-width:0;stroke-miterlimit:4;stroke-dasharray:none"
       id="rect18259-4"
       width="9.6133223"
       height="11.387436"
       x="-16.215412"
       y="-58.025124"
       ry="2.4275126e-14"
       transform="matrix(-0.90041701,0.43502782,-0.43905453,-0.89846042,0,0)" />
    <rect
       style="display:inline;fill:#2592b0;fill-opacity:1;stroke:#2592b0;stroke-width:0;stroke-miterlimit:4;stroke-dasharray:none"
       id="rect18259-9"
       width="9.6681366"
       height="11.322878"
       x="-38.202587"
       y="-36.222698"
       ry="2.4137507e-14"
       transform="matrix(-0.90149997,-0.43277917,0.42863562,-0.90347745,0,0)" />
    <rect
       style="display:inline;fill:#2592b0;fill-opacity:1;stroke:#2592b0;stroke-width:0;stroke-miterlimit:4;stroke-dasharray:none"
       id="rect18259-93"
       width="9.6565037"
       height="11.336641"
       x="-34.928028"
       y="-5.8195758"
       ry="2.4166846e-14"
       transform="matrix(-0.22911584,-0.97339916,0.97487233,-0.2227643,0,0)" />
    <rect
       style="display:inline;fill:#2592b0;fill-opacity:1;stroke:#2592b0;stroke-width:0;stroke-miterlimit:4;stroke-dasharray:none"
       id="rect18259-6"
       width="9.6068306"
       height="11.395031"
       x="-8.9872389"
       y="10.702674"
       ry="2.4291319e-14"
       transform="matrix(0.62007316,-0.784544,0.78349526,0.62139776,0,0)" />
    <rect
       style="display:inline;fill:#2592b0;fill-opacity:1;stroke:#2592b0;stroke-width:0;stroke-miterlimit:4;stroke-dasharray:none"
       id="rect18259-0"
       width="9.6406364"
       height="11.355358"
       x="19.994509"
       y="0.73640382"
       ry="2.4206746e-14"
       transform="matrix(0.99999999,1.2153617e-4,0.00715043,0.99997444,0,0)" />
    <rect
       style="display:inline;fill:#2592b0;fill-opacity:1;stroke:#2592b0;stroke-width:0;stroke-miterlimit:4;stroke-dasharray:none"
       id="rect18259-5"
       width="9.6751814"
       height="11.314528"
       x="30.430458"
       y="-28.038265"
       ry="2.4119709e-14"
       transform="matrix(0.62683451,0.77915242,-0.78012115,0.62562848,0,0)" />
    <path
       id="path18310"
       style="fill:#2592b0;fill-opacity:1;stroke:#2592b0;stroke-width:0;stroke-miterlimit:4;stroke-dasharray:none"
       d="M 94.121094 24.253906 A 71.109582 70.594317 45.086688 0 0 25.28125 79.332031 A 71.109582 70.594317 45.086688 0 0 79.197266 164.18164 A 71.109582 70.594317 45.086688 0 0 163.6543 110.88086 A 71.109582 70.594317 45.086688 0 0 109.74023 26.03125 A 71.109582 70.594317 45.086688 0 0 94.121094 24.253906 z M 94.46875 60.533203 A 34.572926 34.572926 0 0 1 129.04102 95.105469 A 34.572926 34.572926 0 0 1 94.46875 129.67969 A 34.572926 34.572926 0 0 1 59.894531 95.105469 A 34.572926 34.572926 0 0 1 94.46875 60.533203 z "
       transform="scale(0.26458333)" />
  </g>
</svg>
