<?xml version="1.0" encoding="UTF-8" standalone="no"?>
<svg
   xmlns:dc="http://purl.org/dc/elements/1.1/"
   xmlns:cc="http://creativecommons.org/ns#"
   xmlns:rdf="http://www.w3.org/1999/02/22-rdf-syntax-ns#"
   xmlns:svg="http://www.w3.org/2000/svg"
   xmlns="http://www.w3.org/2000/svg"
   xmlns:sodipodi="http://sodipodi.sourceforge.net/DTD/sodipodi-0.dtd"
   xmlns:inkscape="http://www.inkscape.org/namespaces/inkscape"
   width="50"
   height="50"
   viewBox="0 0 13.229166 13.229167"
   version="1.1"
   id="svg8"
   inkscape:version="1.0.1 (3bc2e813f5, 2020-09-07)"
   sodipodi:docname="service-kn-logo.svg">
  <defs
     id="defs2" />
  <sodipodi:namedview
     id="base"
     pagecolor="#ffffff"
     bordercolor="#666666"
     borderopacity="1.0"
     inkscape:pageopacity="0.0"
     inkscape:pageshadow="2"
     inkscape:zoom="16"
     inkscape:cx="7.743724"
     inkscape:cy="22.285654"
     inkscape:document-units="mm"
     inkscape:current-layer="layer1"
     showgrid="false"
     inkscape:window-width="2560"
     inkscape:window-height="1371"
     inkscape:window-x="1920"
     inkscape:window-y="32"
     inkscape:window-maximized="1"
     units="px"
     inkscape:pagecheckerboard="true"
     inkscape:document-rotation="0" />
  <metadata
     id="metadata5">
    <rdf:RDF>
      <cc:Work
         rdf:about="">
        <dc:format>image/svg+xml</dc:format>
        <dc:type
           rdf:resource="http://purl.org/dc/dcmitype/StillImage" />
        <dc:title></dc:title>
      </cc:Work>
    </rdf:RDF>
  </metadata>
  <g
     inkscape:label="Layer 1"
     inkscape:groupmode="layer"
     id="layer1"
     transform="translate(0,-292.76665)">
    <path
       sodipodi:type="star"
       style="opacity:1;fill:none;fill-opacity:1;stroke:none;stroke-width:0.0390487;stroke-miterlimit:4;stroke-dasharray:none;stroke-opacity:1"
       id="path821"
       sodipodi:sides="7"
       sodipodi:cx="5.6578746"
       sodipodi:cy="299.64877"
       sodipodi:r1="5.6799212"
       sodipodi:r2="5.1174326"
       sodipodi:arg1="1.1246908"
       sodipodi:arg2="1.5734898"
       inkscape:flatsided="true"
       inkscape:rounded="0"
       inkscape:randomized="0"
       d="m 8.1085077,304.77282 -4.928833,-0.0133 -3.06269792,-3.86179 1.10971112,-4.80231 4.4464851,-2.12658 4.434965,2.1505 1.083826,4.80821 z"
       inkscape:transform-center-x="0.0034045371"
       inkscape:transform-center-y="-0.27798039" />
    <path
       sodipodi:type="star"
       style="opacity:1;fill:none;fill-opacity:1;stroke:none;stroke-width:0.142194;stroke-miterlimit:4;stroke-dasharray:none;stroke-opacity:1"
       id="path823"
       sodipodi:sides="9"
       sodipodi:cx="10.554786"
       sodipodi:cy="296.35989"
       sodipodi:r1="2.7477798"
       sodipodi:r2="2.4601574"
       sodipodi:arg1="1.2193516"
       sodipodi:arg2="1.5684175"
       inkscape:flatsided="true"
       inkscape:rounded="0"
       inkscape:randomized="0"
       d="m 11.500722,298.93972 -1.8795873,0.004 -1.4427211,-1.20475 -0.3307902,-1.85025 0.9359211,-1.63001 1.7647045,-0.64706 1.767763,0.63866 0.943666,1.62553 -0.321984,1.85181 z"
       inkscape:transform-center-x="-0.0047412204"
       inkscape:transform-center-y="-0.13062997" />
    <path
       id="path985"
       style="opacity:1;fill:#1667b0;fill-opacity:1;stroke:none;stroke-width:0.00141881;stroke-miterlimit:4;stroke-dasharray:none;stroke-opacity:1"
       d="m 5.6691112,294.00519 c -0.011111,3.9e-4 -1.0109549,0.47422 -2.2214273,1.05348 l -2.1998599,1.05347 -0.54913547,2.37074 c -0.30174599,1.30436 -0.54911764,2.38272 -0.54913546,2.39563 -2.358e-5,0.0171 0.414448,0.54486 1.51966193,1.93773 l 1.519662,1.91451 0.9207558,0.005 c 0.5063854,0.003 1.6111729,0.005 2.4553489,0.007 l 1.5345932,0.003 1.529616,-1.90787 c 0.8411061,-1.04869 1.5297461,-1.91015 1.5312751,-1.91617 0.0015,-0.006 -0.09268,-0.4345 -0.209036,-0.95062 -0.116353,-0.51612 -0.210696,-0.9405 -0.210696,-0.94398 0,-0.003 -0.259528,-0.006 -0.57568,-0.007 l -0.5740207,-0.002 -0.7183553,-0.60057 c -0.3948673,-0.33052 -0.7273718,-0.60875 -0.7399228,-0.61881 -0.021502,-0.0172 -0.033489,-0.0741 -0.1941053,-0.97219 l -0.1708789,-0.95228 0.1907872,-0.3318 c 0.1050166,-0.18264 0.192465,-0.33615 0.1924462,-0.3401 -6.1e-5,-0.0115 -2.4596512,-1.19859 -2.4818932,-1.19781 z" />
    <path
       id="path987"
       style="opacity:1;fill:#6594cb;fill-opacity:1;stroke:none;stroke-width:0.000709408;stroke-miterlimit:4;stroke-dasharray:none;stroke-opacity:1"
       d="m 10.548288,293.69163 c -0.0025,5e-5 -0.389218,0.14112 -0.859372,0.31356 l -0.8543956,0.31355 -0.4545711,0.79136 c -0.2497589,0.43499 -0.4532444,0.79358 -0.4529124,0.79798 0.0015,0.0199 0.3165587,1.77639 0.3201908,1.78511 0.00221,0.005 0.3164133,0.2735 0.7001065,0.59393 l 0.6984467,0.58231 0.8776211,-0.002 c 0.483062,-2.6e-4 0.896331,-0.002 0.917439,-0.003 l 0.03816,-0.003 0.695129,-0.58564 c 0.382023,-0.32212 0.695514,-0.58792 0.696788,-0.59227 0.0013,-0.004 0.07235,-0.41014 0.157607,-0.90085 l 0.15429,-0.89255 -0.45789,-0.78969 -0.459548,-0.78969 -0.04645,-0.0166 c -0.02581,-0.009 -0.410861,-0.14938 -0.856053,-0.31024 -0.445193,-0.16086 -0.812031,-0.29204 -0.814579,-0.29199 z" />
    <text
       xml:space="preserve"
       style="font-style:normal;font-weight:normal;font-size:6.23731px;line-height:1.25;font-family:sans-serif;letter-spacing:0px;word-spacing:0px;fill:#ffffff;fill-opacity:1;stroke:none;stroke-width:0.155933"
       x="3.643425"
       y="301.64563"
       id="text10855"><tspan
         sodipodi:role="line"
         id="tspan10853"
         x="3.643425"
         y="301.64563"
         style="fill:#ffffff;fill-opacity:1;stroke-width:0.155933">S</tspan></text>
    <text
       xml:space="preserve"
       style="font-style:normal;font-weight:normal;font-size:4.3317px;line-height:1.25;font-family:sans-serif;letter-spacing:0px;word-spacing:0px;fill:#ffffff;fill-opacity:1;stroke:none;stroke-width:0.108292"
       x="9.4677706"
       y="297.49353"
       id="text10859"><tspan
         sodipodi:role="line"
         id="tspan10857"
         x="9.4677706"
         y="297.49353"
         style="fill:#ffffff;fill-opacity:1;stroke-width:0.108292">r</tspan></text>
  </g>
</svg>
