<?xml version="1.0" encoding="UTF-8" standalone="no"?>
<svg
   xmlns:dc="http://purl.org/dc/elements/1.1/"
   xmlns:cc="http://creativecommons.org/ns#"
   xmlns:rdf="http://www.w3.org/1999/02/22-rdf-syntax-ns#"
   xmlns:svg="http://www.w3.org/2000/svg"
   xmlns="http://www.w3.org/2000/svg"
   xmlns:sodipodi="http://sodipodi.sourceforge.net/DTD/sodipodi-0.dtd"
   xmlns:inkscape="http://www.inkscape.org/namespaces/inkscape"
   width="50mm"
   height="50mm"
   viewBox="0 0 50 50"
   version="1.1"
   id="svg855"
   inkscape:version="1.0.1 (3bc2e813f5, 2020-09-07)"
   sodipodi:docname="service-7gear-2nd-blue2.svg">
  <defs
     id="defs849" />
  <sodipodi:namedview
     id="base"
     pagecolor="#ffffff"
     bordercolor="#666666"
     borderopacity="1.0"
     inkscape:pageopacity="0.0"
     inkscape:pageshadow="2"
     inkscape:zoom="2.8284272"
     inkscape:cx="59.880245"
     inkscape:cy="124.0897"
     inkscape:document-units="mm"
     inkscape:current-layer="layer1"
     inkscape:document-rotation="0"
     showgrid="false"
     inkscape:window-width="1531"
     inkscape:window-height="1184"
     inkscape:window-x="4656"
     inkscape:window-y="63"
     inkscape:window-maximized="0"
     units="mm"
     inkscape:pagecheckerboard="true">
    <inkscape:grid
       type="xygrid"
       id="grid2210" />
  </sodipodi:namedview>
  <metadata
     id="metadata852">
    <rdf:RDF>
      <cc:Work
         rdf:about="">
        <dc:format>image/svg+xml</dc:format>
        <dc:type
           rdf:resource="http://purl.org/dc/dcmitype/StillImage" />
        <dc:title></dc:title>
        <cc:license
           rdf:resource="http://creativecommons.org/licenses/by/4.0/" />
      </cc:Work>
      <cc:License
         rdf:about="http://creativecommons.org/licenses/by/4.0/">
        <cc:permits
           rdf:resource="http://creativecommons.org/ns#Reproduction" />
        <cc:permits
           rdf:resource="http://creativecommons.org/ns#Distribution" />
        <cc:requires
           rdf:resource="http://creativecommons.org/ns#Notice" />
        <cc:requires
           rdf:resource="http://creativecommons.org/ns#Attribution" />
        <cc:permits
           rdf:resource="http://creativecommons.org/ns#DerivativeWorks" />
      </cc:License>
    </rdf:RDF>
  </metadata>
  <g
     inkscape:groupmode="layer"
     id="layer3"
     inkscape:label="Layer 2"
     style="display:none">
    <rect
       style="display:inline;fill:#1a1a1a;fill-opacity:1;stroke:#000000;stroke-width:0"
       id="rect9364"
       width="50.11438"
       height="50.120899"
       x="-0.023077769"
       y="0.053396609"
       ry="3.9999444e-14" />
  </g>
  <g
     inkscape:label="Layer 1"
     inkscape:groupmode="layer"
     id="layer1"
     style="display:inline">
    <path
       id="path18310-4"
       style="fill:#3e94cb;fill-opacity:1;stroke:#2592b0;stroke-width:0;stroke-miterlimit:4;stroke-dasharray:none"
       d="M 148.94922 6.7695312 A 30.164297 29.945724 46.064612 0 0 120.24219 29.636719 A 30.164297 29.945724 46.064612 0 0 142.49414 66.013672 A 30.164297 29.945724 46.064612 0 0 178.70117 44.019531 A 30.164297 29.945724 46.064612 0 0 156.44922 7.640625 A 30.164297 29.945724 46.064612 0 0 148.94922 6.7695312 z M 149.375 26.042969 A 10.785312 10.785312 0 0 1 149.4707 26.042969 A 10.785312 10.785312 0 0 1 160.25586 36.828125 A 10.785312 10.785312 0 0 1 149.4707 47.613281 A 10.785312 10.785312 0 0 1 138.68555 36.828125 A 10.785312 10.785312 0 0 1 149.375 26.042969 z "
       transform="scale(0.26458333)" />
    <rect
       style="fill:#3e94cb;fill-opacity:1;stroke:#2592b0;stroke-width:0;stroke-miterlimit:4;stroke-dasharray:none"
       id="rect18387"
       width="3.7940674"
       height="4.5014362"
       x="-1.8833716"
       y="-50.945461"
       ry="1.0841142e-14"
       transform="rotate(103.82201)" />
    <rect
       style="display:inline;fill:#3e94cb;fill-opacity:1;stroke:#2592b0;stroke-width:0;stroke-miterlimit:4;stroke-dasharray:none"
       id="rect18387-3"
       width="3.7940676"
       height="4.5014362"
       x="-40.542404"
       y="-23.072868"
       ry="1.0841143e-14"
       transform="rotate(175.42923)" />
    <rect
       style="display:inline;fill:#3e94cb;fill-opacity:1;stroke:#2592b0;stroke-width:0;stroke-miterlimit:4;stroke-dasharray:none"
       id="rect18387-1"
       width="3.7940676"
       height="4.5014362"
       x="-25.874931"
       y="22.742805"
       ry="1.0841143e-14"
       transform="rotate(-112.22346)" />
    <rect
       style="display:inline;fill:#3e94cb;fill-opacity:1;stroke:#2592b0;stroke-width:0;stroke-miterlimit:4;stroke-dasharray:none"
       id="rect18387-4"
       width="3.7940676"
       height="4.5014362"
       x="21.909294"
       y="22.817307"
       ry="1.0841143e-14"
       transform="rotate(-40.392075)" />
    <rect
       style="display:inline;fill:#3e94cb;fill-opacity:1;stroke:#2592b0;stroke-width:0;stroke-miterlimit:4;stroke-dasharray:none"
       id="rect18387-6"
       width="3.7940676"
       height="4.5014362"
       x="36.907036"
       y="-22.555132"
       ry="1.0841143e-14"
       transform="rotate(31.532812)" />
    <rect
       style="fill:#3e94cb;fill-opacity:1;stroke:#2592b0;stroke-width:0;stroke-miterlimit:4;stroke-dasharray:none"
       id="rect18259"
       width="7.524436"
       height="8.8895359"
       x="21.552923"
       y="-44.791264"
       ry="1.8950238e-14"
       transform="matrix(-0.21587465,0.97642109,-0.9749787,-0.22229831,0,0)" />
    <rect
       style="display:inline;fill:#3e94cb;fill-opacity:1;stroke:#2592b0;stroke-width:0;stroke-miterlimit:4;stroke-dasharray:none"
       id="rect18259-4"
       width="7.5144606"
       height="8.9012337"
       x="-7.9758978"
       y="-55.051868"
       ry="1.8975174e-14"
       transform="matrix(-0.90041701,0.43502782,-0.43905453,-0.89846042,0,0)" />
    <rect
       style="display:inline;fill:#3e94cb;fill-opacity:1;stroke:#2592b0;stroke-width:0;stroke-miterlimit:4;stroke-dasharray:none"
       id="rect18259-9"
       width="7.5573072"
       height="8.850771"
       x="-34.49498"
       y="-37.999062"
       ry="1.8867601e-14"
       transform="matrix(-0.90149997,-0.43277917,0.42863561,-0.90347746,0,0)" />
    <rect
       style="display:inline;fill:#3e94cb;fill-opacity:1;stroke:#2592b0;stroke-width:0;stroke-miterlimit:4;stroke-dasharray:none"
       id="rect18259-93"
       width="7.5482135"
       height="8.8615294"
       x="-37.793018"
       y="-6.9884024"
       ry="1.8890534e-14"
       transform="matrix(-0.22911585,-0.97339916,0.97487233,-0.2227643,0,0)" />
    <rect
       style="display:inline;fill:#3e94cb;fill-opacity:1;stroke:#2592b0;stroke-width:0;stroke-miterlimit:4;stroke-dasharray:none"
       id="rect18259-6"
       width="7.5093861"
       height="8.9071712"
       x="-15.435825"
       y="15.054946"
       ry="1.8987833e-14"
       transform="matrix(0.62007316,-0.78454399,0.78349526,0.62139776,0,0)" />
    <rect
       style="display:inline;fill:#3e94cb;fill-opacity:1;stroke:#2592b0;stroke-width:0;stroke-miterlimit:4;stroke-dasharray:none"
       id="rect18259-0"
       width="7.5358105"
       height="8.8761597"
       x="15.577725"
       y="11.331028"
       ry="1.8921725e-14"
       transform="matrix(0.99999999,1.2153617e-4,0.00715043,0.99997444,0,0)" />
    <rect
       style="display:inline;fill:#3e94cb;fill-opacity:1;stroke:#2592b0;stroke-width:0;stroke-miterlimit:4;stroke-dasharray:none"
       id="rect18259-5"
       width="7.5628138"
       height="8.844244"
       x="32.192879"
       y="-15.194886"
       ry="1.8853688e-14"
       transform="matrix(0.62683451,0.77915242,-0.78012115,0.62562847,0,0)" />
    <path
       id="path18310"
       style="fill:#3e94cb;fill-opacity:1;stroke:#2592b0;stroke-width:0;stroke-miterlimit:4;stroke-dasharray:none"
       d="M 73.445312 59.607422 A 55.584335 55.181565 45.086486 0 0 19.859375 102.66016 A 55.584335 55.181565 45.086486 0 0 62.001953 168.98438 A 55.584335 55.181565 45.086486 0 0 128.01953 127.32227 A 55.584335 55.181565 45.086486 0 0 85.876953 60.998047 A 55.584335 55.181565 45.086486 0 0 73.445312 59.607422 z M 73.939453 85.986328 A 29.004072 29.004072 0 0 1 102.94336 114.99023 A 29.004072 29.004072 0 0 1 73.939453 143.99609 A 29.004072 29.004072 0 0 1 44.935547 114.99023 A 29.004072 29.004072 0 0 1 73.939453 85.986328 z "
       transform="scale(0.26458333)" />
  </g>
</svg>
