<?xml version="1.0" encoding="UTF-8" standalone="no"?>
<svg
   xmlns:dc="http://purl.org/dc/elements/1.1/"
   xmlns:cc="http://creativecommons.org/ns#"
   xmlns:rdf="http://www.w3.org/1999/02/22-rdf-syntax-ns#"
   xmlns:svg="http://www.w3.org/2000/svg"
   xmlns="http://www.w3.org/2000/svg"
   xmlns:sodipodi="http://sodipodi.sourceforge.net/DTD/sodipodi-0.dtd"
   xmlns:inkscape="http://www.inkscape.org/namespaces/inkscape"
   width="50mm"
   height="50mm"
   viewBox="0 0 50 50"
   version="1.1"
   id="svg855"
   inkscape:version="1.0.1 (3bc2e813f5, 2020-09-07)"
   sodipodi:docname="service-gear.svg">
  <defs
     id="defs849" />
  <sodipodi:namedview
     id="base"
     pagecolor="#ffffff"
     bordercolor="#666666"
     borderopacity="1.0"
     inkscape:pageopacity="0.0"
     inkscape:pageshadow="2"
     inkscape:zoom="5.12"
     inkscape:cx="87.694638"
     inkscape:cy="101.69053"
     inkscape:document-units="mm"
     inkscape:current-layer="layer1"
     inkscape:document-rotation="0"
     showgrid="false"
     inkscape:window-width="2560"
     inkscape:window-height="1371"
     inkscape:window-x="1920"
     inkscape:window-y="32"
     inkscape:window-maximized="1"
     units="mm"
     inkscape:pagecheckerboard="true">
    <inkscape:grid
       type="xygrid"
       id="grid2210" />
  </sodipodi:namedview>
  <metadata
     id="metadata852">
    <rdf:RDF>
      <cc:Work
         rdf:about="">
        <dc:format>image/svg+xml</dc:format>
        <dc:type
           rdf:resource="http://purl.org/dc/dcmitype/StillImage" />
        <dc:title></dc:title>
        <cc:license
           rdf:resource="http://creativecommons.org/licenses/by/4.0/" />
      </cc:Work>
      <cc:License
         rdf:about="http://creativecommons.org/licenses/by/4.0/">
        <cc:permits
           rdf:resource="http://creativecommons.org/ns#Reproduction" />
        <cc:permits
           rdf:resource="http://creativecommons.org/ns#Distribution" />
        <cc:requires
           rdf:resource="http://creativecommons.org/ns#Notice" />
        <cc:requires
           rdf:resource="http://creativecommons.org/ns#Attribution" />
        <cc:permits
           rdf:resource="http://creativecommons.org/ns#DerivativeWorks" />
      </cc:License>
    </rdf:RDF>
  </metadata>
  <g
     inkscape:groupmode="layer"
     id="layer2"
     inkscape:label="Layer 2"
     style="display:none">
    <rect
       style="display:inline;opacity:1;fill:#3d8037;fill-opacity:0.400538;stroke-width:0.2732;stroke-miterlimit:4;stroke-dasharray:none"
       id="rect2212"
       width="75"
       height="75"
       x="0.059107598"
       y="0.091476537"
       ry="5.9678059e-14" />
    <rect
       style="display:inline;opacity:1;fill:#3d5238;fill-opacity:0.400538;stroke-width:0.273201;stroke-miterlimit:4;stroke-dasharray:none"
       id="rect2212-9"
       width="75"
       height="75"
       x="75.059105"
       y="0.091476537"
       ry="5.9678059e-14" />
    <rect
       style="display:inline;opacity:1;fill:#905238;fill-opacity:0.400538;stroke-width:0.273201;stroke-miterlimit:4;stroke-dasharray:none"
       id="rect2212-9-3"
       width="75"
       height="75"
       x="75.059105"
       y="75.091476"
       ry="5.9678059e-14" />
    <rect
       style="display:inline;opacity:1;fill:#9052ac;fill-opacity:0.400538;stroke-width:0.273201;stroke-miterlimit:4;stroke-dasharray:none"
       id="rect2212-9-3-6"
       width="75"
       height="75"
       x="0.059107598"
       y="75.091476"
       ry="5.9678059e-14" />
  </g>
  <g
     inkscape:label="Layer 1"
     inkscape:groupmode="layer"
     id="layer1"
     style="display:inline">
    <text
       xml:space="preserve"
       style="font-style:italic;font-variant:normal;font-weight:bold;font-stretch:normal;font-size:25.1612px;line-height:1.25;font-family:sans-serif;-inkscape-font-specification:'sans-serif, Bold Italic';font-variant-ligatures:normal;font-variant-caps:normal;font-variant-numeric:normal;font-variant-east-asian:normal;letter-spacing:0px;word-spacing:0px;fill:#6594cb;fill-opacity:1;stroke:none;stroke-width:0.62993;stroke-miterlimit:4;stroke-dasharray:none;"
       x="33.128296"
       y="21.710979"
       id="text1420"><tspan
         sodipodi:role="line"
         id="tspan1418"
         x="33.128296"
         y="21.710979"
         style="font-style:italic;font-variant:normal;font-weight:bold;font-stretch:normal;font-size:25.1612px;font-family:sans-serif;-inkscape-font-specification:'sans-serif, Bold Italic';font-variant-ligatures:normal;font-variant-caps:normal;font-variant-numeric:normal;font-variant-east-asian:normal;stroke-width:0.62993;stroke-miterlimit:4;stroke-dasharray:none;fill:#6594cb;fill-opacity:1;">S</tspan></text>
    <g
       id="g2369"
       transform="matrix(0.20346567,0,0,0.20346567,-0.22750731,7.5450647)"
       style="stroke-width:0.997711;stroke-miterlimit:4;stroke-dasharray:none">
      <path
         id="path1424"
         style="opacity:1;fill:#1667b0;fill-opacity:1;stroke-width:3.77088;stroke-miterlimit:4;stroke-dasharray:none"
         d="M 339.44336,56.693359 A 283.46457,283.46457 0 0 0 56.693359,340.1582 283.46457,283.46457 0 0 0 340.1582,623.62109 283.46457,283.46457 0 0 0 623.62109,340.1582 283.46457,283.46457 0 0 0 340.1582,56.693359 a 283.46457,283.46457 0 0 0 -0.71484,0 z m 0.32617,141.732421 a 141.73228,141.73228 0 0 1 0.38867,0 A 141.73228,141.73228 0 0 1 481.89062,340.1582 141.73228,141.73228 0 0 1 340.1582,481.89062 141.73228,141.73228 0 0 1 198.42578,340.1582 141.73228,141.73228 0 0 1 339.76953,198.42578 Z"
         transform="matrix(0.26458333,0,0,0.26458333,1.9202847,1.4700861)" />
      <rect
         style="display:inline;opacity:1;fill:#1667b0;fill-opacity:1;stroke-width:0.997711;stroke-miterlimit:4;stroke-dasharray:none"
         id="rect2097-62-0"
         width="29.997923"
         height="29.997232"
         x="76.459579"
         y="-181.91046"
         ry="8.5016223e-14"
         transform="matrix(9.2277617e-5,1,-1,-6.9242823e-5,0,0)" />
      <rect
         style="display:inline;opacity:1;fill:#1667b0;fill-opacity:1;stroke-width:0.997711;stroke-miterlimit:4;stroke-dasharray:none"
         id="rect2097-62-0-6"
         width="29.997925"
         height="29.997232"
         x="114.6724"
         y="-90.305023"
         ry="8.5016223e-14"
         transform="matrix(0.70717184,0.70704171,-0.70715593,0.70705763,0,0)" />
      <rect
         style="display:inline;opacity:1;fill:#1667b0;fill-opacity:1;stroke-width:0.997711;stroke-miterlimit:4;stroke-dasharray:none"
         id="rect2097-62-0-1"
         width="29.997925"
         height="29.997232"
         x="-15.331476"
         y="-219.67522"
         ry="8.5016223e-14"
         transform="matrix(-0.70704153,0.70717202,-0.70705781,-0.70715575,0,0)" />
      <rect
         style="display:inline;opacity:1;fill:#1667b0;fill-opacity:1;stroke-width:0.997711;stroke-miterlimit:4;stroke-dasharray:none"
         id="rect2097-62-0-8"
         width="29.997925"
         height="29.997232"
         x="-106.93077"
         y="-181.47719"
         ry="8.5016223e-14"
         transform="matrix(-1,9.2277617e-5,6.9242823e-5,-1,0,0)" />
      <rect
         style="display:inline;opacity:1;fill:#1667b0;fill-opacity:1;stroke-width:0.997711;stroke-miterlimit:4;stroke-dasharray:none"
         id="rect2097-62-0-7"
         width="29.997925"
         height="29.997232"
         x="-144.68071"
         y="-89.692238"
         ry="8.5016223e-14"
         transform="matrix(-0.70717203,-0.70704152,0.70715574,-0.70705782,0,0)" />
      <rect
         style="display:inline;opacity:1;fill:#1667b0;fill-opacity:1;stroke-width:0.997711;stroke-miterlimit:4;stroke-dasharray:none"
         id="rect2097-62-0-9"
         width="29.997925"
         height="29.997232"
         x="76.922462"
         y="1.4799525"
         ry="8.5016223e-14"
         transform="matrix(1,-9.2277617e-5,-6.9242823e-5,1,0,0)" />
      <rect
         style="display:inline;opacity:1;fill:#1667b0;fill-opacity:1;stroke-width:0.997711;stroke-miterlimit:4;stroke-dasharray:none"
         id="rect2097-62-0-2"
         width="29.997925"
         height="29.997232"
         x="-106.46787"
         y="1.9132283"
         ry="8.5016223e-14"
         transform="matrix(-9.2277617e-5,-1,1,6.9242823e-5,0,0)" />
      <rect
         style="display:inline;opacity:1;fill:#1667b0;fill-opacity:1;stroke-width:0.997711;stroke-miterlimit:4;stroke-dasharray:none"
         id="rect2097-62-0-0"
         width="29.997925"
         height="29.997232"
         x="-14.676816"
         y="39.67799"
         ry="8.5016223e-14"
         transform="matrix(0.70704164,-0.70717192,0.70705771,0.70715585,0,0)" />
    </g>
  </g>
</svg>
