<?xml version="1.0" encoding="UTF-8" standalone="no"?>
<svg
   xmlns:dc="http://purl.org/dc/elements/1.1/"
   xmlns:cc="http://creativecommons.org/ns#"
   xmlns:rdf="http://www.w3.org/1999/02/22-rdf-syntax-ns#"
   xmlns:svg="http://www.w3.org/2000/svg"
   xmlns="http://www.w3.org/2000/svg"
   xmlns:sodipodi="http://sodipodi.sourceforge.net/DTD/sodipodi-0.dtd"
   xmlns:inkscape="http://www.inkscape.org/namespaces/inkscape"
   width="50mm"
   height="50mm"
   viewBox="0 0 50 50"
   version="1.1"
   id="svg855"
   inkscape:version="1.0.1 (3bc2e813f5, 2020-09-07)"
   sodipodi:docname="source-generic-cloud-rain.svg">
  <defs
     id="defs849" />
  <sodipodi:namedview
     id="base"
     pagecolor="#ffffff"
     bordercolor="#666666"
     borderopacity="1.0"
     inkscape:pageopacity="0.0"
     inkscape:pageshadow="2"
     inkscape:zoom="4.392842"
     inkscape:cx="54.29055"
     inkscape:cy="83.69887"
     inkscape:document-units="mm"
     inkscape:current-layer="layer1"
     inkscape:document-rotation="0"
     showgrid="false"
     inkscape:window-width="2560"
     inkscape:window-height="1371"
     inkscape:window-x="1920"
     inkscape:window-y="32"
     inkscape:window-maximized="1"
     units="mm"
     inkscape:pagecheckerboard="true">
    <inkscape:grid
       type="xygrid"
       id="grid2210" />
  </sodipodi:namedview>
  <metadata
     id="metadata852">
    <rdf:RDF>
      <cc:Work
         rdf:about="">
        <dc:format>image/svg+xml</dc:format>
        <dc:type
           rdf:resource="http://purl.org/dc/dcmitype/StillImage" />
        <dc:title></dc:title>
        <cc:license
           rdf:resource="http://creativecommons.org/licenses/by/4.0/" />
      </cc:Work>
      <cc:License
         rdf:about="http://creativecommons.org/licenses/by/4.0/">
        <cc:permits
           rdf:resource="http://creativecommons.org/ns#Reproduction" />
        <cc:permits
           rdf:resource="http://creativecommons.org/ns#Distribution" />
        <cc:requires
           rdf:resource="http://creativecommons.org/ns#Notice" />
        <cc:requires
           rdf:resource="http://creativecommons.org/ns#Attribution" />
        <cc:permits
           rdf:resource="http://creativecommons.org/ns#DerivativeWorks" />
      </cc:License>
    </rdf:RDF>
  </metadata>
  <g
     inkscape:groupmode="layer"
     id="layer2"
     inkscape:label="Layer 2"
     style="display:none">
    <rect
       style="display:inline;opacity:1;fill:#3d8037;fill-opacity:0.400538;stroke-width:0.2732;stroke-miterlimit:4;stroke-dasharray:none"
       id="rect2212"
       width="75"
       height="75"
       x="0.059107598"
       y="0.091476537"
       ry="5.9678059e-14" />
    <rect
       style="display:inline;opacity:1;fill:#3d5238;fill-opacity:0.400538;stroke-width:0.273201;stroke-miterlimit:4;stroke-dasharray:none"
       id="rect2212-9"
       width="75"
       height="75"
       x="75.059105"
       y="0.091476537"
       ry="5.9678059e-14" />
    <rect
       style="display:inline;opacity:1;fill:#905238;fill-opacity:0.400538;stroke-width:0.273201;stroke-miterlimit:4;stroke-dasharray:none"
       id="rect2212-9-3"
       width="75"
       height="75"
       x="75.059105"
       y="75.091476"
       ry="5.9678059e-14" />
    <rect
       style="display:inline;opacity:1;fill:#9052ac;fill-opacity:0.400538;stroke-width:0.273201;stroke-miterlimit:4;stroke-dasharray:none"
       id="rect2212-9-3-6"
       width="75"
       height="75"
       x="0.059107598"
       y="75.091476"
       ry="5.9678059e-14" />
  </g>
  <g
     inkscape:label="Layer 1"
     inkscape:groupmode="layer"
     id="layer1"
     style="display:inline">
    <g
       id="g13249"
       transform="matrix(0,1.1094683,-1.1094683,0,54.915384,70.188809)">
      <rect
         style="fill:#2592b0;fill-opacity:1;stroke:#000000;stroke-width:0;stroke-miterlimit:4;stroke-dasharray:none;stroke-opacity:1"
         id="rect6836"
         width="4.1400237"
         height="21.008339"
         x="-31.935884"
         y="16.459543"
         ry="3.6337449e-14" />
      <rect
         style="display:inline;fill:#2592b0;fill-opacity:1;stroke:#000000;stroke-width:0;stroke-miterlimit:4;stroke-dasharray:none;stroke-opacity:1"
         id="rect6836-1"
         width="4.1239476"
         height="9.7117968"
         x="-37.46788"
         y="-28.160109"
         ry="1.6798186e-14"
         transform="rotate(-90)" />
      <rect
         style="display:inline;fill:#2592b0;fill-opacity:1;stroke:#000000;stroke-width:0;stroke-miterlimit:4;stroke-dasharray:none;stroke-opacity:1"
         id="rect6836-1-9"
         width="4.1239476"
         height="9.7117968"
         x="-20.583492"
         y="-28.160109"
         ry="1.6798186e-14"
         transform="rotate(-90)" />
      <rect
         style="display:inline;fill:#2592b0;fill-opacity:1;stroke:#000000;stroke-width:0;stroke-miterlimit:4;stroke-dasharray:none;stroke-opacity:1"
         id="rect6836-1-9-6"
         width="4.1239481"
         height="6.399179"
         x="-29.27755"
         y="-28.167568"
         ry="1.1068456e-14"
         transform="rotate(-90)" />
    </g>
    <rect
       style="display:inline;fill:#2592b0;fill-opacity:1;stroke:#000000;stroke-width:0;stroke-miterlimit:4;stroke-dasharray:none;stroke-opacity:1"
       id="rect6836-1-9-9"
       width="5.2085013"
       height="14.76562"
       x="30.563585"
       y="64.386307"
       ry="2.5539622e-14"
       transform="matrix(0.70605168,-0.70816031,0.70605168,0.70816031,0,0)" />
    <rect
       style="display:inline;fill:#2592b0;fill-opacity:1;stroke:#000000;stroke-width:0;stroke-miterlimit:4;stroke-dasharray:none;stroke-opacity:1"
       id="rect6836-1-9-9-3"
       width="5.2085013"
       height="14.76562"
       x="-79.151932"
       y="21.00647"
       ry="2.5539622e-14"
       transform="matrix(-0.70605168,-0.70816031,0.70605168,-0.70816031,0,0)" />
    <path
       id="rect12903"
       style="fill:#2592b0;fill-opacity:1;stroke:#2592b0;stroke-width:1.82127;stroke-miterlimit:4;stroke-dasharray:none;stroke-opacity:1"
       d="M 25.504269,0.91064927 A 11.853471,9.5319413 0 0 0 15.34968,5.5818233 11.853471,9.5319413 0 0 0 6.9665996,12.209116 a 11.853471,9.5319413 0 0 0 -5.7242173,8.158569 11.853471,9.5319413 0 0 0 11.8536437,9.531563 11.853471,9.5319413 0 0 0 0.102589,-5.13e-4 v 0.0098 h 23.720112 v -0.0088 A 11.853471,9.5319413 0 0 0 48.757618,20.367685 11.853471,9.5319413 0 0 0 45.047265,13.441873 11.853471,9.5319413 0 0 0 35.5723,5.3590913 11.853471,9.5319413 0 0 0 25.545302,0.91064927 a 11.853471,9.5319413 0 0 0 -0.04103,0 z m 0.0064,1.47095603 a 10.024303,8.0610196 0 0 1 0.03462,0 10.024303,8.0610196 0 0 1 7.595746,2.801673 11.853471,9.5319413 0 0 0 -6.44e-4,0 10.024303,8.0610196 0 0 1 1.281665,1.520967 10.024303,8.0610196 0 0 1 0.0045,5.16e-4 10.024303,8.0610196 0 0 1 0.442399,0.04795 10.024303,8.0610196 0 0 1 0.0064,9.96e-4 10.024303,8.0610196 0 0 1 0.0045,5.16e-4 10.024303,8.0610196 0 0 1 0.02437,0.0031 10.024303,8.0610196 0 0 1 0.23338,0.033 10.024303,8.0610196 0 0 1 0.03848,0.0057 10.024303,8.0610196 0 0 1 0.0045,5.16e-4 10.024303,8.0610196 0 0 1 0.144899,0.0232 10.024303,8.0610196 0 0 1 0.0045,9.97e-4 10.024303,8.0610196 0 0 1 0.144899,0.02475 10.024303,8.0610196 0 0 1 0.0045,9.97e-4 10.024303,8.0610196 0 0 1 0.144261,0.0263 10.024303,8.0610196 0 0 1 0.0045,9.97e-4 10.024303,8.0610196 0 0 1 0.143618,0.02836 10.024303,8.0610196 0 0 1 0.0045,9.97e-4 10.024303,8.0610196 0 0 1 0.142979,0.03042 10.024303,8.0610196 0 0 1 0.0045,9.97e-4 10.024303,8.0610196 0 0 1 0.142335,0.03197 10.024303,8.0610196 0 0 1 0.0045,9.97e-4 10.024303,8.0610196 0 0 1 0.141696,0.03351 10.024303,8.0610196 0 0 1 0.0045,9.97e-4 10.024303,8.0610196 0 0 1 0.141054,0.03558 10.024303,8.0610196 0 0 1 0.0045,9.97e-4 10.024303,8.0610196 0 0 1 0.140412,0.03712 10.024303,8.0610196 0 0 1 0.0045,9.97e-4 10.024303,8.0610196 0 0 1 0.139773,0.03918 10.024303,8.0610196 0 0 1 0.0077,0.0021 10.024303,8.0610196 0 0 1 6.124297,4.9707257 11.853471,9.5319413 0 0 0 -0.0045,-0.002 10.024303,8.0610196 0 0 1 0.524464,2.073672 10.024303,8.0610196 0 0 1 0.0026,0.0015 10.024303,8.0610196 0 0 1 0.11669,0.07888 10.024303,8.0610196 0 0 1 0.05963,0.04125 10.024303,8.0610196 0 0 1 0.05578,0.03919 10.024303,8.0610196 0 0 1 0.05834,0.04176 10.024303,8.0610196 0 0 1 0.05514,0.04021 10.024303,8.0610196 0 0 1 0.0577,0.04227 10.024303,8.0610196 0 0 1 0.05449,0.04073 10.024303,8.0610196 0 0 1 0.05706,0.04331 10.024303,8.0610196 0 0 1 0.05321,0.04125 10.024303,8.0610196 0 0 1 0.05642,0.04434 10.024303,8.0610196 0 0 1 0.05258,0.04176 10.024303,8.0610196 0 0 1 0.01859,0.01494 10.024303,8.0610196 0 0 1 0.08848,0.07218 10.024303,8.0610196 0 0 1 0.05449,0.04537 10.024303,8.0610196 0 0 1 0.05129,0.04331 10.024303,8.0610196 0 0 1 0.01283,0.01135 10.024303,8.0610196 0 0 1 0.09104,0.07836 10.024303,8.0610196 0 0 1 0.01029,0.0093 10.024303,8.0610196 0 0 1 0.192348,0.174268 10.024303,8.0610196 0 0 1 0.05129,0.04796 10.024303,8.0610196 0 0 1 0.04744,0.04537 10.024303,8.0610196 0 0 1 0.05002,0.04846 10.024303,8.0610196 0 0 1 0.04681,0.0464 10.024303,8.0610196 0 0 1 6.42e-4,9.58e-4 10.024303,8.0610196 0 0 1 0.187857,0.191798 10.024303,8.0610196 0 0 1 0.04744,0.05052 10.024303,8.0610196 0 0 1 0.0077,0.0088 10.024303,8.0610196 0 0 1 0.08271,0.08971 10.024303,8.0610196 0 0 1 0.0686,0.07734 10.024303,8.0610196 0 0 1 1.840111,4.654159 10.024303,8.0610196 0 0 1 -9.832731,8.059578 v 0.0046 H 35.081818 15.035516 13.45379 v -0.0082 a 10.024303,8.0610196 0 0 1 -0.255179,0.0046 10.024303,8.0610196 0 0 1 -0.102589,5.16e-4 A 10.024303,8.0610196 0 0 1 3.0715885,20.367372 10.024303,8.0610196 0 0 1 6.538946,14.2701 a 11.853471,9.5319413 0 0 0 0,5.15e-4 10.024303,8.0610196 0 0 1 0.1160488,-0.0794 10.024303,8.0610196 0 0 1 0.1179723,-0.07836 10.024303,8.0610196 0 0 1 0.1186133,-0.0763 10.024303,8.0610196 0 0 1 0.1205367,-0.07528 10.024303,8.0610196 0 0 1 0.1218191,-0.07373 10.024303,8.0610196 0 0 1 0.1237428,-0.07217 10.024303,8.0610196 0 0 1 0.1243839,-0.07064 10.024303,8.0610196 0 0 1 0.126307,-0.06907 10.024303,8.0610196 0 0 1 0.080143,-0.0433 10.024303,8.0610196 0 0 1 0.025646,-0.0134 10.024303,8.0610196 0 0 1 0.048086,-0.02526 10.024303,8.0610196 0 0 1 0.1019435,-0.05207 10.024303,8.0610196 0 0 1 0.081426,-0.04125 10.024303,8.0610196 0 0 1 0.03975,-0.01907 10.024303,8.0610196 0 0 1 0.021799,-0.01031 10.024303,8.0610196 0 0 1 0.1045073,-0.05053 10.024303,8.0610196 0 0 1 0.028853,-0.0134 10.024303,8.0610196 0 0 1 0.2500499,-0.113429 10.024303,8.0610196 0 0 1 0.083992,-0.03712 10.024303,8.0610196 0 0 1 0.028211,-0.01186 10.024303,8.0610196 0 0 1 0.05001,-0.02115 10.024303,8.0610196 0 0 1 0.096815,-0.04021 10.024303,8.0610196 0 0 1 8.0124954,-6.3179267 10.024303,8.0610196 0 0 1 8.948577,-4.484018 z" />
    <path
       style="fill:#ffffff;fill-opacity:1;stroke:#2592b0;stroke-width:1.63473;stroke-miterlimit:4;stroke-dasharray:none;stroke-opacity:1"
       d="M 45.359717,103.70095 C 40.544254,103.24836 35.050931,101.66219 30.840873,99.508694 22.999777,95.497874 17.733806,89.409642 15.787997,82.105368 15.109556,79.558602 15.052535,74.886827 15.668522,72.316717 17.631423,64.126827 23.86724,57.383129 33.25443,53.298509 l 2.069651,-0.90056 0.402203,-1.593502 c 2.702168,-10.705836 13.66661,-19.31 27.158882,-21.312479 l 1.879146,-0.278897 1.00712,-1.610859 c 6.197888,-9.913337 19.903857,-15.975635 33.74357,-14.925146 8.031598,0.60963 15.251198,3.192332 20.905858,7.478748 2.11395,1.602443 5.11728,4.749358 6.37207,6.676701 l 1.13627,1.745315 1.93691,0.253385 c 9.82431,1.285211 17.32756,4.610183 22.87279,10.135793 4.24002,4.225019 6.82331,9.319129 7.31718,14.429087 0.17099,1.769249 0.45894,2.154341 3.04785,4.076109 3.6188,2.686258 7.00958,6.75014 8.6491,10.366038 0.37497,0.826978 0.95668,2.403433 1.29268,3.503234 0.55401,1.813397 0.61091,2.338859 0.61091,5.641923 0,3.303065 -0.0569,3.828526 -0.61091,5.641924 -2.2852,7.479916 -7.36168,13.136084 -15.36706,17.121864 -4.36008,2.170823 -9.04794,3.455033 -14.52617,3.979353 -2.97543,0.28478 -94.746,0.26076 -97.792763,-0.0256 z"
       id="path13295"
       transform="scale(0.26458333)" />
  </g>
</svg>
