<?xml version="1.0" encoding="UTF-8" standalone="no"?>
<svg
   xmlns:dc="http://purl.org/dc/elements/1.1/"
   xmlns:cc="http://creativecommons.org/ns#"
   xmlns:rdf="http://www.w3.org/1999/02/22-rdf-syntax-ns#"
   xmlns:svg="http://www.w3.org/2000/svg"
   xmlns="http://www.w3.org/2000/svg"
   xmlns:sodipodi="http://sodipodi.sourceforge.net/DTD/sodipodi-0.dtd"
   xmlns:inkscape="http://www.inkscape.org/namespaces/inkscape"
   width="50mm"
   height="50mm"
   viewBox="0 0 50 50"
   version="1.1"
   id="svg855"
   inkscape:version="1.0.1 (3bc2e813f5, 2020-09-07)"
   sodipodi:docname="source-generic-cloud.svg">
  <defs
     id="defs849" />
  <sodipodi:namedview
     id="base"
     pagecolor="#ffffff"
     bordercolor="#666666"
     borderopacity="1.0"
     inkscape:pageopacity="0.0"
     inkscape:pageshadow="2"
     inkscape:zoom="4.392842"
     inkscape:cx="54.29055"
     inkscape:cy="83.471227"
     inkscape:document-units="mm"
     inkscape:current-layer="layer1"
     inkscape:document-rotation="0"
     showgrid="false"
     inkscape:window-width="2560"
     inkscape:window-height="1371"
     inkscape:window-x="1920"
     inkscape:window-y="32"
     inkscape:window-maximized="1"
     units="mm"
     inkscape:pagecheckerboard="true">
    <inkscape:grid
       type="xygrid"
       id="grid2210" />
  </sodipodi:namedview>
  <metadata
     id="metadata852">
    <rdf:RDF>
      <cc:Work
         rdf:about="">
        <dc:format>image/svg+xml</dc:format>
        <dc:type
           rdf:resource="http://purl.org/dc/dcmitype/StillImage" />
        <dc:title />
        <cc:license
           rdf:resource="http://creativecommons.org/licenses/by/4.0/" />
      </cc:Work>
      <cc:License
         rdf:about="http://creativecommons.org/licenses/by/4.0/">
        <cc:permits
           rdf:resource="http://creativecommons.org/ns#Reproduction" />
        <cc:permits
           rdf:resource="http://creativecommons.org/ns#Distribution" />
        <cc:requires
           rdf:resource="http://creativecommons.org/ns#Notice" />
        <cc:requires
           rdf:resource="http://creativecommons.org/ns#Attribution" />
        <cc:permits
           rdf:resource="http://creativecommons.org/ns#DerivativeWorks" />
      </cc:License>
    </rdf:RDF>
  </metadata>
  <g
     inkscape:groupmode="layer"
     id="layer2"
     inkscape:label="Layer 2"
     style="display:none">
    <rect
       style="display:inline;opacity:1;fill:#3d8037;fill-opacity:0.400538;stroke-width:0.2732;stroke-miterlimit:4;stroke-dasharray:none"
       id="rect2212"
       width="75"
       height="75"
       x="0.059107598"
       y="0.091476537"
       ry="5.9678059e-14" />
    <rect
       style="display:inline;opacity:1;fill:#3d5238;fill-opacity:0.400538;stroke-width:0.273201;stroke-miterlimit:4;stroke-dasharray:none"
       id="rect2212-9"
       width="75"
       height="75"
       x="75.059105"
       y="0.091476537"
       ry="5.9678059e-14" />
    <rect
       style="display:inline;opacity:1;fill:#905238;fill-opacity:0.400538;stroke-width:0.273201;stroke-miterlimit:4;stroke-dasharray:none"
       id="rect2212-9-3"
       width="75"
       height="75"
       x="75.059105"
       y="75.091476"
       ry="5.9678059e-14" />
    <rect
       style="display:inline;opacity:1;fill:#9052ac;fill-opacity:0.400538;stroke-width:0.273201;stroke-miterlimit:4;stroke-dasharray:none"
       id="rect2212-9-3-6"
       width="75"
       height="75"
       x="0.059107598"
       y="75.091476"
       ry="5.9678059e-14" />
  </g>
  <g
     inkscape:label="Layer 1"
     inkscape:groupmode="layer"
     id="layer1"
     style="display:inline">
    <g
       id="g13249"
       transform="matrix(1.0636498,0,0,1.0636498,51.79557,-2.3270253)">
      <rect
         style="fill:#2592b0;fill-opacity:1;stroke:#000000;stroke-width:0;stroke-miterlimit:4;stroke-dasharray:none;stroke-opacity:1"
         id="rect6836"
         width="4.1400237"
         height="21.008339"
         x="-31.935884"
         y="16.459543"
         ry="3.6337449e-14" />
      <rect
         style="display:inline;fill:#2592b0;fill-opacity:1;stroke:#000000;stroke-width:0;stroke-miterlimit:4;stroke-dasharray:none;stroke-opacity:1"
         id="rect6836-1"
         width="4.1239476"
         height="9.7117968"
         x="-37.46788"
         y="-28.160109"
         ry="1.6798186e-14"
         transform="rotate(-90)" />
      <rect
         style="display:inline;fill:#2592b0;fill-opacity:1;stroke:#000000;stroke-width:0;stroke-miterlimit:4;stroke-dasharray:none;stroke-opacity:1"
         id="rect6836-1-9"
         width="4.1239476"
         height="9.7117968"
         x="-20.583492"
         y="-28.160109"
         ry="1.6798186e-14"
         transform="rotate(-90)" />
      <rect
         style="display:inline;fill:#2592b0;fill-opacity:1;stroke:#000000;stroke-width:0;stroke-miterlimit:4;stroke-dasharray:none;stroke-opacity:1"
         id="rect6836-1-9-6"
         width="4.1239481"
         height="6.399179"
         x="-29.27755"
         y="-28.167568"
         ry="1.1068456e-14"
         transform="rotate(-90)" />
    </g>
    <rect
       style="display:inline;fill:#2592b0;fill-opacity:1;stroke:#000000;stroke-width:0;stroke-miterlimit:4;stroke-dasharray:none;stroke-opacity:1"
       id="rect6836-1-9-9"
       width="5.2085013"
       height="14.76562"
       x="30.563585"
       y="64.386307"
       ry="2.5539622e-14"
       transform="matrix(0.70605168,-0.70816031,0.70605168,0.70816031,0,0)" />
    <rect
       style="display:inline;fill:#2592b0;fill-opacity:1;stroke:#000000;stroke-width:0;stroke-miterlimit:4;stroke-dasharray:none;stroke-opacity:1"
       id="rect6836-1-9-9-3"
       width="5.2085013"
       height="14.76562"
       x="-79.151932"
       y="21.00647"
       ry="2.5539622e-14"
       transform="matrix(-0.70605168,-0.70816031,0.70605168,-0.70816031,0,0)" />
    <path
       id="rect12903"
       style="fill:#2592b0;fill-opacity:1;stroke:#2592b0;stroke-width:1.73815;stroke-miterlimit:4;stroke-dasharray:none;stroke-opacity:1"
       d="m 25.508841,6.0965603 a 11.960957,11.960957 0 0 0 -10.246668,5.8615237 11.960957,11.960957 0 0 0 -8.4590973,8.31612 11.960957,11.960957 0 0 0 -5.7761236,10.23761 11.960957,11.960957 0 0 0 11.9611309,11.960482 11.960957,11.960957 0 0 0 0.103515,-6.46e-4 v 0.01229 h 23.935201 v -0.011 A 11.960957,11.960957 0 0 0 48.973048,30.511814 11.960957,11.960957 0 0 0 45.22905,21.821103 11.960957,11.960957 0 0 0 35.668169,11.678594 11.960957,11.960957 0 0 0 25.550247,6.0965603 a 11.960957,11.960957 0 0 0 -0.04141,0 z m 0.0065,1.8457974 a 10.115201,10.115201 0 0 1 0.03494,0 10.115201,10.115201 0 0 1 7.664622,3.5156203 11.960957,11.960957 0 0 0 -6.5e-4,0 10.115201,10.115201 0 0 1 1.293289,1.908554 10.115201,10.115201 0 0 1 0.0045,6.47e-4 10.115201,10.115201 0 0 1 0.44641,0.06017 10.115201,10.115201 0 0 1 0.0065,0.0013 10.115201,10.115201 0 0 1 0.0045,6.47e-4 10.115201,10.115201 0 0 1 0.02459,0.0039 10.115201,10.115201 0 0 1 0.235497,0.04141 10.115201,10.115201 0 0 1 0.03882,0.0071 10.115201,10.115201 0 0 1 0.0045,6.47e-4 10.115201,10.115201 0 0 1 0.146212,0.02912 10.115201,10.115201 0 0 1 0.0045,0.0013 10.115201,10.115201 0 0 1 0.146213,0.03105 10.115201,10.115201 0 0 1 0.0045,0.0013 10.115201,10.115201 0 0 1 0.145569,0.033 10.115201,10.115201 0 0 1 0.0045,0.0013 10.115201,10.115201 0 0 1 0.14492,0.03558 10.115201,10.115201 0 0 1 0.0045,0.0013 10.115201,10.115201 0 0 1 0.144276,0.03817 10.115201,10.115201 0 0 1 0.0045,0.0013 10.115201,10.115201 0 0 1 0.143626,0.04011 10.115201,10.115201 0 0 1 0.0045,0.0013 10.115201,10.115201 0 0 1 0.142981,0.04205 10.115201,10.115201 0 0 1 0.0045,0.0013 10.115201,10.115201 0 0 1 0.142334,0.04464 10.115201,10.115201 0 0 1 0.0045,0.0013 10.115201,10.115201 0 0 1 0.141685,0.04658 10.115201,10.115201 0 0 1 0.0045,0.0013 10.115201,10.115201 0 0 1 0.141042,0.04917 10.115201,10.115201 0 0 1 0.0077,0.0026 10.115201,10.115201 0 0 1 6.179831,6.237412 11.960957,11.960957 0 0 0 -0.0045,-0.0026 10.115201,10.115201 0 0 1 0.52922,2.602103 10.115201,10.115201 0 0 1 0.0026,0.0019 10.115201,10.115201 0 0 1 0.117748,0.09899 10.115201,10.115201 0 0 1 0.06017,0.05176 10.115201,10.115201 0 0 1 0.05629,0.04917 10.115201,10.115201 0 0 1 0.05887,0.0524 10.115201,10.115201 0 0 1 0.05564,0.05046 10.115201,10.115201 0 0 1 0.05823,0.05305 10.115201,10.115201 0 0 1 0.05499,0.05111 10.115201,10.115201 0 0 1 0.05758,0.05435 10.115201,10.115201 0 0 1 0.0537,0.05176 10.115201,10.115201 0 0 1 0.05694,0.05564 10.115201,10.115201 0 0 1 0.05305,0.0524 10.115201,10.115201 0 0 1 0.01876,0.01876 10.115201,10.115201 0 0 1 0.08928,0.09058 10.115201,10.115201 0 0 1 0.05499,0.05692 10.115201,10.115201 0 0 1 0.05176,0.05435 10.115201,10.115201 0 0 1 0.01294,0.01423 10.115201,10.115201 0 0 1 0.09187,0.09834 10.115201,10.115201 0 0 1 0.01035,0.01165 10.115201,10.115201 0 0 1 0.194092,0.218675 10.115201,10.115201 0 0 1 0.05176,0.06017 10.115201,10.115201 0 0 1 0.04787,0.05693 10.115201,10.115201 0 0 1 0.05047,0.06081 10.115201,10.115201 0 0 1 0.04723,0.05823 10.115201,10.115201 0 0 1 6.48e-4,0.0013 10.115201,10.115201 0 0 1 0.18956,0.240673 10.115201,10.115201 0 0 1 0.04787,0.06339 10.115201,10.115201 0 0 1 0.0077,0.011 10.115201,10.115201 0 0 1 0.08346,0.112572 10.115201,10.115201 0 0 1 0.06923,0.09704 10.115201,10.115201 0 0 1 1.856797,5.840174 10.115201,10.115201 0 0 1 -9.921892,10.113391 v 0.0058 H 35.173238 14.94516 13.349091 v -0.01035 a 10.115201,10.115201 0 0 1 -0.257493,0.0058 10.115201,10.115201 0 0 1 -0.103515,6.46e-4 10.115201,10.115201 0 0 1 -10.1153333,-10.115332 10.115201,10.115201 0 0 1 3.498799,-7.651034 11.960957,11.960957 0 0 0 0,6.46e-4 10.115201,10.115201 0 0 1 0.1171011,-0.09963 10.115201,10.115201 0 0 1 0.119042,-0.09834 10.115201,10.115201 0 0 1 0.1196889,-0.09575 10.115201,10.115201 0 0 1 0.1216296,-0.09446 10.115201,10.115201 0 0 1 0.1229239,-0.09252 10.115201,10.115201 0 0 1 0.1248647,-0.09057 10.115201,10.115201 0 0 1 0.1255119,-0.08864 10.115201,10.115201 0 0 1 0.1274524,-0.08669 10.115201,10.115201 0 0 1 0.08087,-0.05434 10.115201,10.115201 0 0 1 0.025879,-0.01682 10.115201,10.115201 0 0 1 0.048522,-0.0317 10.115201,10.115201 0 0 1 0.102868,-0.06533 10.115201,10.115201 0 0 1 0.082164,-0.05176 10.115201,10.115201 0 0 1 0.040112,-0.02394 10.115201,10.115201 0 0 1 0.021997,-0.01294 10.115201,10.115201 0 0 1 0.1054554,-0.0634 10.115201,10.115201 0 0 1 0.029114,-0.01682 10.115201,10.115201 0 0 1 0.2523173,-0.142332 10.115201,10.115201 0 0 1 0.084753,-0.04658 10.115201,10.115201 0 0 1 0.028466,-0.01488 10.115201,10.115201 0 0 1 0.050463,-0.02653 10.115201,10.115201 0 0 1 0.097692,-0.05045 10.115201,10.115201 0 0 1 8.0851521,-7.927917 10.115201,10.115201 0 0 1 9.029721,-5.6266765 z" />
    <path
       style="fill:#ffffff;stroke:#2592b0;stroke-width:1.54869;stroke-miterlimit:4;stroke-dasharray:none;stroke-opacity:1"
       d="m 45.753935,150.0202 c -8.388184,-1.0023 -15.601788,-4.42724 -21.276333,-10.10179 -4.877272,-4.87727 -8.08569,-10.88736 -9.596013,-17.97551 -0.730823,-3.42984 -0.733369,-9.7504 -0.0053,-13.20329 1.648764,-7.81954 5.510655,-14.568469 11.165249,-19.512057 2.222204,-1.942786 4.923962,-3.788534 7.126625,-4.868671 l 1.528078,-0.749335 0.492956,-2.174858 c 2.176801,-9.603785 8.151343,-17.798384 16.506955,-22.64071 3.484657,-2.019465 7.147548,-3.365222 11.515973,-4.231005 l 1.295512,-0.256759 1.067211,-1.978527 c 1.844321,-3.419227 3.737838,-5.967418 6.468015,-8.704301 12.306855,-12.337079 31.595307,-13.630571 45.639497,-3.060606 3.40238,2.560705 7.69712,7.592712 9.51826,11.152239 0.96789,1.891785 0.96733,1.891429 3.56935,2.278531 5.01624,0.746263 8.66687,2.005254 12.93344,4.46035 2.75995,1.588147 4.97737,3.357139 7.51205,5.992909 5.53664,5.75745 8.85483,12.96422 9.59024,20.829021 0.21627,2.312878 0.24127,2.388529 0.97555,2.951941 1.35572,1.040235 3.62805,3.293328 4.96028,4.918285 3.61715,4.411937 6.06276,9.566233 7.33783,15.465013 0.71672,3.31569 0.71672,10.14468 0,13.46037 -0.72398,3.3493 -1.49136,5.56343 -2.993,8.63572 -1.69655,3.47107 -3.65191,6.22296 -6.38891,8.9915 -4.04051,4.08707 -8.75955,7.02402 -14.01488,8.72232 -5.46613,1.76641 -0.79089,1.62676 -55.416249,1.65531 -26.85619,0.014 -49.136755,-0.0112 -49.512366,-0.0561 z M 121.6729,133.5527 v -8.42279 H 102.89234 84.111791 v -8.08133 -8.08133 h 12.065082 12.065087 v -8.42279 -8.422797 H 96.176873 84.111791 V 83.129762 74.137861 H 102.89234 121.6729 V 65.715068 57.292275 H 94.46955 67.266204 V 99.633884 141.97549 H 94.46955 121.6729 Z"
       id="path13878"
       transform="scale(0.26458333)" />
  </g>
</svg>
